<svg xmlns="http://www.w3.org/2000/svg" xmlns:xlink="http://www.w3.org/1999/xlink" width="150" zoomAndPan="magnify" viewBox="0 0 112.5 74.999997" height="100" preserveAspectRatio="xMidYMid meet" version="1.0"><defs><g/><clipPath id="fec6790c38"><path d="M 24 17.367188 L 27 17.367188 L 27 21 L 24 21 Z M 24 17.367188 " clip-rule="nonzero"/></clipPath><clipPath id="e6fd47cddb"><path d="M 8.632812 31 L 11 31 L 11 33 L 8.632812 33 Z M 8.632812 31 " clip-rule="nonzero"/></clipPath><clipPath id="4f764e116f"><path d="M 39 31 L 41.792969 31 L 41.792969 33 L 39 33 Z M 39 31 " clip-rule="nonzero"/></clipPath><clipPath id="789c7076bd"><path d="M 19 33 L 35 33 L 35 57.890625 L 19 57.890625 Z M 19 33 " clip-rule="nonzero"/></clipPath><clipPath id="ec3577d39e"><path d="M 25 49 L 30 49 L 30 57.890625 L 25 57.890625 Z M 25 49 " clip-rule="nonzero"/></clipPath></defs><g clip-path="url(#fec6790c38)"><path fill="#006650" d="M 24.160156 19.023438 C 24.160156 18.3125 24.800781 17.867188 25.207031 17.367188 C 25.625 17.859375 26.21875 18.328125 26.25 19.023438 C 26.316406 19.769531 25.625 20.230469 25.199219 20.75 C 24.785156 20.230469 24.101562 19.769531 24.160156 19.023438 Z M 24.160156 19.023438 " fill-opacity="1" fill-rule="nonzero"/></g><path fill="#006650" d="M 19.15625 20.902344 C 19.042969 19.785156 19.960938 19 20.59375 18.214844 C 21.359375 18.894531 22.394531 19.535156 22.464844 20.660156 C 22.589844 21.800781 21.652344 22.605469 21.003906 23.40625 C 20.246094 22.703125 19.1875 22.046875 19.15625 20.902344 Z M 19.15625 20.902344 " fill-opacity="1" fill-rule="nonzero"/><path fill="#006650" d="M 27.925781 20.636719 C 28.015625 19.519531 29.039062 18.878906 29.8125 18.214844 C 30.449219 18.992188 31.390625 19.769531 31.246094 20.886719 C 31.230469 22.03125 30.15625 22.683594 29.40625 23.382812 C 28.730469 22.597656 27.789062 21.792969 27.925781 20.636719 Z M 27.925781 20.636719 " fill-opacity="1" fill-rule="nonzero"/><path fill="#006650" d="M 16.332031 19.679688 C 16.761719 19.84375 17.300781 19.925781 17.558594 20.351562 C 17.714844 20.816406 17.570312 21.308594 17.550781 21.785156 C 17.03125 21.753906 16.558594 21.542969 16.128906 21.277344 C 16.175781 20.742188 16.242188 20.207031 16.332031 19.679688 Z M 16.332031 19.679688 " fill-opacity="1" fill-rule="nonzero"/><path fill="#006650" d="M 32.847656 20.34375 C 33.117188 19.988281 33.5625 19.828125 33.929688 19.585938 C 34.132812 20.109375 34.257812 20.667969 34.289062 21.242188 C 33.855469 21.511719 33.386719 21.722656 32.882812 21.828125 C 32.847656 21.339844 32.6875 20.824219 32.847656 20.34375 Z M 32.847656 20.34375 " fill-opacity="1" fill-rule="nonzero"/><path fill="#006650" d="M 13.167969 23.746094 C 13.386719 23.1875 13.851562 22.78125 14.214844 22.328125 C 14.710938 22.847656 15.453125 23.347656 15.347656 24.175781 C 15.363281 24.921875 14.664062 25.347656 14.222656 25.84375 C 13.710938 25.261719 12.929688 24.628906 13.167969 23.746094 Z M 13.167969 23.746094 " fill-opacity="1" fill-rule="nonzero"/><path fill="#006650" d="M 35.003906 24.152344 C 34.980469 23.355469 35.6875 22.839844 36.183594 22.320312 C 36.632812 22.921875 37.421875 23.488281 37.257812 24.335938 C 37.113281 24.960938 36.558594 25.375 36.160156 25.851562 C 35.695312 25.347656 35.046875 24.894531 35.003906 24.152344 Z M 35.003906 24.152344 " fill-opacity="1" fill-rule="nonzero"/><path fill="#006650" d="M 17.558594 24.117188 C 18.773438 24.726562 20.253906 25.460938 20.488281 26.945312 C 20.832031 28.351562 19.804688 29.527344 19.097656 30.621094 C 17.902344 29.933594 16.347656 29.21875 16.203125 27.664062 C 15.910156 26.289062 16.917969 25.203125 17.558594 24.117188 Z M 17.558594 24.117188 " fill-opacity="1" fill-rule="nonzero"/><path fill="#006650" d="M 29.902344 26.910156 C 30.15625 25.429688 31.644531 24.75 32.832031 24.109375 C 33.253906 24.816406 33.769531 25.480469 34.085938 26.246094 C 34.460938 27.324219 34.160156 28.628906 33.261719 29.367188 C 32.660156 29.859375 31.96875 30.230469 31.300781 30.628906 C 30.609375 29.519531 29.527344 28.335938 29.902344 26.910156 Z M 29.902344 26.910156 " fill-opacity="1" fill-rule="nonzero"/><path fill="#006650" d="M 10.703125 24.425781 C 11.117188 24.457031 11.53125 24.507812 11.945312 24.546875 C 12.050781 25.007812 12.15625 25.460938 12.246094 25.933594 C 11.757812 25.875 11.277344 25.792969 10.800781 25.671875 C 10.757812 25.253906 10.726562 24.839844 10.703125 24.425781 Z M 10.703125 24.425781 " fill-opacity="1" fill-rule="nonzero"/><path fill="#006650" d="M 10.425781 27.21875 C 11.441406 27.234375 12.664062 27.503906 13.109375 28.523438 C 13.664062 29.414062 13.160156 30.449219 12.890625 31.339844 C 12.019531 31.023438 10.929688 30.910156 10.390625 30.054688 C 9.832031 29.1875 10.246094 28.132812 10.425781 27.21875 Z M 10.425781 27.21875 " fill-opacity="1" fill-rule="nonzero"/><path fill="#006650" d="M 37.273438 28.5 C 37.746094 27.527344 38.917969 27.375 39.835938 27.058594 C 40.113281 27.988281 40.625 29.082031 40.03125 29.996094 C 39.535156 30.917969 38.398438 31.023438 37.503906 31.347656 C 37.242188 30.441406 36.738281 29.398438 37.273438 28.5 Z M 37.273438 28.5 " fill-opacity="1" fill-rule="nonzero"/><path fill="#006650" d="M 14.574219 31.050781 C 14.28125 30.433594 14.738281 29.851562 15.003906 29.324219 C 15.460938 29.714844 16.242188 29.980469 16.242188 30.691406 C 16.175781 31.148438 15.933594 31.542969 15.753906 31.964844 C 15.347656 31.6875 14.835938 31.488281 14.574219 31.050781 Z M 14.574219 31.050781 " fill-opacity="1" fill-rule="nonzero"/><path fill="#006650" d="M 34.167969 30.675781 C 34.140625 29.980469 34.90625 29.695312 35.355469 29.308594 C 35.605469 29.792969 36.054688 30.304688 35.867188 30.886719 C 35.703125 31.453125 35.070312 31.648438 34.628906 31.957031 C 34.46875 31.542969 34.191406 31.136719 34.167969 30.675781 Z M 34.167969 30.675781 " fill-opacity="1" fill-rule="nonzero"/><g clip-path="url(#e6fd47cddb)"><path fill="#006650" d="M 8.636719 31.015625 C 9.007812 31.128906 9.457031 31.097656 9.773438 31.347656 C 10.089844 31.640625 10.132812 32.101562 10.253906 32.492188 C 9.742188 32.433594 9.238281 32.335938 8.75 32.175781 C 8.699219 31.785156 8.667969 31.398438 8.636719 31.015625 Z M 8.636719 31.015625 " fill-opacity="1" fill-rule="nonzero"/></g><path fill="#006650" d="M 21.253906 31.121094 C 22.199219 31.601562 23.328125 32.109375 23.628906 33.234375 C 23.996094 34.378906 23.140625 35.363281 22.636719 36.304688 C 21.71875 35.792969 20.59375 35.316406 20.277344 34.222656 C 19.855469 33.074219 20.75 32.078125 21.253906 31.121094 Z M 21.253906 31.121094 " fill-opacity="1" fill-rule="nonzero"/><path fill="#006650" d="M 26.753906 33.285156 C 27.007812 32.125 28.195312 31.609375 29.144531 31.128906 C 29.691406 32.101562 30.59375 33.1875 30.074219 34.359375 C 29.722656 35.390625 28.648438 35.820312 27.761719 36.296875 C 27.226562 35.382812 26.445312 34.417969 26.753906 33.285156 Z M 26.753906 33.285156 " fill-opacity="1" fill-rule="nonzero"/><g clip-path="url(#4f764e116f)"><path fill="#006650" d="M 39.738281 32.636719 C 39.992188 32.125 40.359375 31.695312 40.894531 31.480469 C 41.1875 31.609375 41.488281 31.730469 41.789062 31.859375 C 41.59375 32.152344 41.390625 32.441406 41.195312 32.734375 C 40.707031 32.710938 40.21875 32.675781 39.738281 32.636719 Z M 39.738281 32.636719 " fill-opacity="1" fill-rule="nonzero"/></g><path fill="#006650" d="M 37.84375 26.175781 C 37.992188 25.632812 38.265625 25.128906 38.746094 24.816406 C 39.0625 24.878906 39.382812 24.945312 39.699219 25.007812 C 39.5625 25.332031 39.421875 25.65625 39.285156 25.980469 C 38.804688 26.0625 38.324219 26.125 37.84375 26.175781 Z M 37.84375 26.175781 " fill-opacity="1" fill-rule="nonzero"/><path fill="#006650" d="M 9.382812 33.769531 C 10.410156 34.152344 11.636719 34.484375 12.085938 35.59375 C 12.628906 36.5 12.296875 37.566406 12.125 38.53125 C 11.191406 38.152344 10.050781 37.890625 9.53125 36.929688 C 8.902344 35.988281 9.1875 34.804688 9.382812 33.769531 Z M 9.382812 33.769531 " fill-opacity="1" fill-rule="nonzero"/><path fill="#006650" d="M 38.136719 35.59375 C 38.691406 34.675781 39.78125 34.371094 40.722656 34.019531 C 40.871094 35 41.21875 36.070312 40.667969 36.992188 C 40.210938 38.085938 38.964844 38.359375 37.992188 38.789062 C 37.777344 37.746094 37.460938 36.539062 38.136719 35.59375 Z M 38.136719 35.59375 " fill-opacity="1" fill-rule="nonzero"/><path fill="#006650" d="M 35.417969 39.898438 C 35.792969 39.601562 36.289062 39.535156 36.738281 39.390625 C 36.753906 39.957031 37.046875 40.621094 36.648438 41.113281 C 36.324219 41.574219 35.703125 41.550781 35.214844 41.707031 C 35.207031 41.121094 34.898438 40.359375 35.417969 39.898438 Z M 35.417969 39.898438 " fill-opacity="1" fill-rule="nonzero"/><path fill="#006650" d="M 13.035156 39.972656 C 13.597656 40.109375 14.128906 40.328125 14.597656 40.660156 C 14.574219 41.210938 14.542969 41.761719 14.484375 42.304688 C 13.996094 42.117188 13.335938 42.125 13.042969 41.625 C 12.726562 41.121094 12.980469 40.507812 13.035156 39.972656 Z M 13.035156 39.972656 " fill-opacity="1" fill-rule="nonzero"/><path fill="#006650" d="M 17.375 33.480469 C 17.429688 33.234375 17.355469 33.035156 17.234375 32.855469 C 17.015625 32.539062 16.542969 32.546875 16.347656 32.871094 C 16.273438 32.992188 16.21875 33.128906 16.203125 33.285156 C 16.054688 34.417969 16.226562 35.558594 16.476562 36.660156 C 16.917969 35.648438 17.25 34.570312 17.375 33.480469 Z M 17.375 33.480469 " fill-opacity="1" fill-rule="nonzero"/><path fill="#006650" d="M 33.027344 33.488281 C 33.050781 33.292969 32.996094 33.121094 32.914062 32.960938 C 32.703125 32.570312 32.148438 32.5625 31.9375 32.953125 C 31.878906 33.050781 31.847656 33.15625 31.855469 33.277344 C 31.871094 34.441406 32.277344 35.558594 32.734375 36.621094 C 32.847656 35.59375 33.042969 34.539062 33.027344 33.488281 Z M 33.027344 33.488281 " fill-opacity="1" fill-rule="nonzero"/><path fill="#006650" d="M 23.109375 44.449219 C 23.191406 43.339844 23.644531 42.304688 24.199219 41.347656 C 22.808594 39.363281 20.894531 37.746094 18.8125 36.53125 C 18.820312 37.089844 18.730469 37.707031 19.089844 38.191406 C 19.734375 39.226562 20.636719 40.0625 21.351562 41.042969 C 21.089844 41.292969 20.816406 41.769531 20.375 41.558594 C 19.066406 40.9375 17.925781 39.957031 16.992188 38.855469 C 15.851562 37.488281 15.6875 35.65625 15.484375 33.972656 C 15.476562 33.363281 14.582031 32.886719 14.273438 33.566406 C 13.941406 34.929688 14.320312 36.34375 14.476562 37.714844 C 14.730469 39.769531 15.769531 41.640625 17.121094 43.179688 C 18.699219 44.960938 20.515625 46.507812 22.191406 48.199219 C 22.660156 46.984375 23.019531 45.738281 23.109375 44.449219 Z M 23.109375 44.449219 " fill-opacity="1" fill-rule="nonzero"/><g clip-path="url(#789c7076bd)"><path fill="#006650" d="M 34.839844 36.296875 C 34.636719 38.003906 34.425781 39.785156 33.5625 41.316406 C 32.066406 44.011719 29.59375 45.941406 27.445312 48.078125 C 26.828125 48.699219 26.003906 49.234375 25.808594 50.140625 C 25.160156 52.554688 24.542969 55.015625 24.394531 57.519531 L 24.394531 57.800781 L 24.019531 57.800781 C 22.507812 57.890625 20.992188 57.792969 19.480469 57.835938 C 19.554688 57.625 19.628906 57.414062 19.699219 57.203125 C 20.71875 53.777344 22.222656 50.515625 23.410156 47.144531 C 24.011719 45.617188 23.71875 43.867188 24.550781 42.410156 C 25.558594 40.378906 27.421875 38.992188 29.15625 37.617188 C 29.503906 37.347656 29.902344 37.171875 30.285156 36.976562 C 30.503906 38.917969 28.640625 40.046875 27.707031 41.496094 C 28 41.785156 28.367188 42.28125 28.828125 41.941406 C 30.699219 40.886719 32.539062 39.355469 33.125 37.210938 C 33.441406 36.222656 33.359375 35.164062 33.644531 34.175781 C 33.816406 33.632812 34.523438 33.445312 34.816406 34.003906 C 34.996094 34.765625 34.90625 35.542969 34.839844 36.296875 Z M 34.839844 36.296875 " fill-opacity="1" fill-rule="nonzero"/></g><path fill="#006650" d="M 17.871094 39.082031 C 18.210938 37.476562 19.074219 35.875 18.714844 34.207031 C 18.585938 34.152344 18.324219 34.027344 18.1875 33.972656 C 17.753906 35.171875 17.324219 36.378906 16.820312 37.550781 C 17.144531 38.078125 17.496094 38.585938 17.871094 39.082031 Z M 17.871094 39.082031 " fill-opacity="1" fill-rule="nonzero"/><path fill="#006650" d="M 31.570312 39.097656 C 31.894531 38.515625 32.402344 37.949219 32.441406 37.269531 C 32.101562 36.09375 31.636719 34.945312 31.117188 33.828125 C 30.863281 34.296875 30.441406 34.789062 30.628906 35.363281 C 30.855469 36.628906 31.261719 37.851562 31.570312 39.097656 Z M 31.570312 39.097656 " fill-opacity="1" fill-rule="nonzero"/><g clip-path="url(#ec3577d39e)"><path fill="#006650" d="M 26.8125 49.679688 C 26.003906 52.199219 25.519531 54.804688 25.160156 57.414062 C 25.144531 57.519531 25.109375 57.730469 25.09375 57.84375 C 26.699219 57.835938 28.308594 57.84375 29.910156 57.835938 C 29.863281 57.625 29.8125 57.414062 29.757812 57.210938 C 29.089844 54.59375 27.902344 52.148438 26.8125 49.679688 Z M 26.8125 49.679688 " fill-opacity="1" fill-rule="nonzero"/></g><path fill="#006650" d="M 22.351562 26.3125 C 22.359375 24.378906 24.101562 23.15625 25.214844 21.785156 C 26.355469 23.136719 27.964844 24.410156 28.0625 26.3125 C 28.234375 28.335938 26.347656 29.601562 25.207031 31.007812 C 24.0625 29.609375 22.207031 28.34375 22.351562 26.3125 Z M 22.351562 26.3125 " fill-opacity="1" fill-rule="nonzero"/><g fill="#006650" fill-opacity="1"><g transform="translate(51.738655, 34.790342)"><g><path d="M 7.589844 -10.90625 C 8.183594 -11.097656 7.9375 -12.039062 7.324219 -11.847656 C 6.421875 -11.539062 5.519531 -11.214844 4.640625 -10.832031 C 4.695312 -10.964844 4.734375 -11.117188 4.792969 -11.253906 C 4.984375 -11.847656 4.042969 -12.097656 3.851562 -11.5 C 3.71875 -11.097656 3.566406 -10.675781 3.414062 -10.273438 C 3.007812 -10.082031 2.605469 -9.871094 2.203125 -9.660156 C 1.648438 -9.375 2.148438 -8.53125 2.683594 -8.835938 C 2.761719 -8.875 2.835938 -8.894531 2.894531 -8.933594 C 2.378906 -7.628906 1.859375 -6.324219 1.476562 -4.964844 C 1.148438 -3.757812 0.460938 -1.609375 1.496094 -0.535156 C 3.085938 1.113281 6.363281 -1.589844 7.515625 -2.664062 C 7.957031 -3.085938 7.304688 -3.699219 6.84375 -3.316406 C 6.019531 -2.625 2.089844 0.480469 1.972656 -2.050781 C 1.9375 -2.761719 2.03125 -3.46875 2.167969 -4.179688 C 2.222656 -4.179688 2.261719 -4.199219 2.320312 -4.21875 C 3.546875 -4.851562 4.832031 -5.347656 6.058594 -5.980469 C 6.632812 -6.269531 6.132812 -7.113281 5.578125 -6.824219 C 4.5625 -6.308594 3.527344 -5.867188 2.492188 -5.386719 C 2.933594 -6.804688 3.585938 -8.203125 4.140625 -9.546875 C 5.253906 -10.0625 6.421875 -10.523438 7.589844 -10.90625 Z M 7.589844 -10.90625 "/></g></g></g><g fill="#006650" fill-opacity="1"><g transform="translate(59.885333, 34.790342)"><g><path d="M 5.347656 -4.773438 C 4.101562 -4.542969 2.703125 -4.253906 1.476562 -3.699219 C 1.457031 -3.757812 1.457031 -3.816406 1.457031 -3.871094 C 1.378906 -4.238281 1.304688 -4.621094 1.265625 -4.984375 C 1.226562 -5.273438 1.1875 -5.578125 1.226562 -5.867188 C 1.265625 -6.058594 1.324219 -6.269531 1.378906 -6.460938 C 1.972656 -7.09375 2.433594 -7.035156 2.78125 -6.289062 C 2.550781 -5.730469 3.449219 -5.484375 3.679688 -6.039062 C 4.292969 -7.535156 2.359375 -8.203125 1.226562 -7.589844 C -0.171875 -6.84375 0.269531 -4.984375 0.5 -3.71875 C 0.515625 -3.546875 0.554688 -3.394531 0.574219 -3.238281 C 0.0585938 -2.914062 -0.402344 -2.53125 -0.785156 -2.050781 C -1.515625 -1.132812 -2.320312 1.417969 -0.460938 1.570312 C 1.132812 1.707031 1.628906 -0.078125 1.667969 -1.304688 C 1.6875 -1.78125 1.667969 -2.28125 1.609375 -2.761719 C 2.953125 -3.375 4.621094 -3.660156 5.617188 -3.832031 C 6.210938 -3.949219 5.960938 -4.886719 5.347656 -4.773438 Z M 0.710938 -1.304688 C 0.691406 -0.882812 0.652344 -0.402344 0.460938 -0.0195312 C 0.0585938 0.726562 -0.652344 0.59375 -0.59375 -0.269531 C -0.554688 -1.113281 -0.0390625 -1.761719 0.671875 -2.242188 C 0.710938 -1.9375 0.710938 -1.628906 0.710938 -1.304688 Z M 0.710938 -1.304688 "/></g></g></g><g fill="#006650" fill-opacity="1"><g transform="translate(65.195051, 34.790342)"><g><path d="M 7.648438 -5.042969 C 7.09375 -5.636719 6.324219 -5.941406 5.5 -6.019531 C 5.519531 -6.210938 5.5 -6.402344 5.464844 -6.574219 C 5.253906 -7.515625 4.484375 -8.183594 3.507812 -8.203125 C 2.953125 -8.203125 2.414062 -7.992188 1.957031 -7.6875 C 1.992188 -7.820312 2.03125 -7.9375 2.070312 -8.070312 C 2.261719 -8.644531 1.359375 -8.894531 1.167969 -8.320312 C -0.078125 -4.734375 -1.148438 -1.074219 -2.222656 2.570312 C -2.414062 3.164062 -1.496094 3.414062 -1.304688 2.816406 C -0.402344 0.0390625 0.402344 -2.78125 1.285156 -5.578125 C 1.304688 -5.597656 1.304688 -5.617188 1.324219 -5.65625 C 1.746094 -6.34375 2.585938 -7.304688 3.507812 -7.246094 C 4.292969 -7.1875 4.542969 -6.613281 4.523438 -6 C 3.777344 -5.921875 3.046875 -5.65625 2.472656 -5.273438 C 1.800781 -4.792969 0.804688 -4.027344 0.765625 -3.105469 C 0.765625 -2.378906 1.359375 -1.839844 2.070312 -1.9375 C 3.375 -2.109375 4.792969 -3.585938 5.308594 -5.042969 C 5.960938 -4.964844 6.59375 -4.734375 6.957031 -4.351562 C 7.378906 -3.890625 8.070312 -4.582031 7.648438 -5.042969 Z M 1.761719 -3.164062 C 1.609375 -3.679688 3.414062 -4.792969 3.851562 -4.945312 C 3.988281 -4.984375 4.121094 -5.023438 4.253906 -5.042969 C 4.238281 -4.984375 4.21875 -4.945312 4.179688 -4.886719 C 4.027344 -4.621094 2.011719 -2.339844 1.761719 -3.164062 Z M 1.761719 -3.164062 "/></g></g></g><g fill="#006650" fill-opacity="1"><g transform="translate(72.191613, 34.790342)"><g><path d="M 7.4375 -5.15625 C 7.074219 -4.523438 6.269531 -3.21875 5.464844 -3.414062 C 4.273438 -3.679688 4.851562 -5.539062 5.367188 -6.785156 C 5.539062 -7.148438 5.691406 -7.457031 5.789062 -7.6875 C 6.058594 -8.242188 5.234375 -8.742188 4.964844 -8.167969 C 4.886719 -8.050781 4.8125 -7.898438 4.734375 -7.726562 C 2.320312 -9.066406 -1.667969 -5.15625 0.535156 -3.046875 C 1.726562 -1.9375 2.875 -2.761719 3.816406 -4.042969 C 3.871094 -3.355469 4.179688 -2.742188 4.867188 -2.394531 C 6.269531 -1.6875 7.707031 -3.660156 8.28125 -4.675781 C 8.585938 -5.214844 7.746094 -5.710938 7.4375 -5.15625 Z M 2.242188 -3.796875 C 0.902344 -2.875 0.765625 -4.792969 1.324219 -5.636719 C 1.957031 -6.59375 3.257812 -7.515625 4.371094 -6.882812 C 3.832031 -5.691406 3.203125 -4.449219 2.242188 -3.796875 Z M 2.242188 -3.796875 "/></g></g></g><g fill="#006650" fill-opacity="1"><g transform="translate(79.629054, 34.790342)"><g><path d="M 5.847656 -5.902344 C 5.195312 -5.214844 4.484375 -4.542969 3.621094 -4.082031 C 2.703125 -3.605469 0.902344 -3.355469 1.113281 -4.925781 C 1.1875 -5.597656 1.535156 -6.230469 1.992188 -6.726562 C 2.359375 -7.09375 3.507812 -8.242188 3.738281 -7.34375 C 3.832031 -6.921875 4.542969 -6.996094 4.484375 -7.4375 C 4.332031 -8.683594 3.335938 -8.835938 2.359375 -8.242188 C 1.246094 -7.550781 0.402344 -6.480469 0.171875 -5.175781 C -0.078125 -3.832031 0.691406 -2.796875 2.070312 -2.722656 C 1.917969 -2.511719 1.78125 -2.300781 1.667969 -2.089844 C 1.535156 -1.859375 1.746094 -1.628906 1.972656 -1.6875 C 2.320312 -1.746094 2.761719 -1.726562 2.550781 -1.304688 C 2.359375 -0.902344 1.898438 -0.785156 1.515625 -0.882812 C 1.148438 -0.957031 0.996094 -0.421875 1.359375 -0.324219 C 2.089844 -0.152344 2.933594 -0.5 3.144531 -1.265625 C 3.296875 -1.878906 2.894531 -2.183594 2.414062 -2.242188 C 2.511719 -2.414062 2.644531 -2.585938 2.761719 -2.742188 C 4.238281 -2.992188 5.558594 -4.179688 6.535156 -5.214844 C 6.957031 -5.675781 6.269531 -6.363281 5.847656 -5.902344 Z M 5.847656 -5.902344 "/></g></g></g><g fill="#006650" fill-opacity="1"><g transform="translate(85.456328, 34.790342)"><g><path d="M 7.054688 -5.328125 C 6.671875 -4.90625 6.019531 -4.867188 5.367188 -5.023438 C 5.691406 -6 5.484375 -6.957031 4.675781 -7.6875 C 4.542969 -7.820312 4.390625 -7.917969 4.253906 -7.972656 C 2.03125 -9.429688 -0.308594 -6.039062 0.0976562 -3.949219 C 0.324219 -2.664062 1.417969 -1.820312 2.742188 -2.222656 C 3.605469 -2.472656 4.390625 -3.238281 4.90625 -4.042969 C 5.921875 -3.757812 7.054688 -3.890625 7.746094 -4.640625 C 8.167969 -5.097656 7.476562 -5.789062 7.054688 -5.328125 Z M 3.605469 -6.882812 C 4.253906 -7.535156 4.601562 -5.921875 4.5625 -5.65625 C 4.542969 -5.558594 4.523438 -5.464844 4.484375 -5.367188 C 3.699219 -5.789062 3.164062 -6.421875 3.605469 -6.882812 Z M 3.949219 -4.371094 C 3.660156 -3.988281 3.238281 -3.488281 2.796875 -3.296875 C 1.476562 -2.683594 0.863281 -4.027344 1.054688 -5.0625 C 1.207031 -5.847656 1.898438 -6.996094 2.742188 -7.324219 C 2.742188 -7.324219 2.742188 -7.304688 2.742188 -7.304688 C 2.28125 -6.078125 2.953125 -5.023438 3.988281 -4.429688 C 3.96875 -4.410156 3.96875 -4.390625 3.949219 -4.371094 Z M 3.949219 -4.371094 "/></g></g></g><g fill="#006650" fill-opacity="1"><g transform="translate(92.569704, 34.790342)"><g/></g></g><g fill="#006650" fill-opacity="1"><g transform="translate(51.738655, 53.841087)"><g><path d="M 7.667969 -14.378906 C 5.097656 -10.582031 3.566406 -6.308594 1.898438 -2.089844 C 1.878906 -5.078125 1.839844 -8.128906 0.441406 -10.851562 C 0.152344 -11.386719 -0.671875 -10.90625 -0.382812 -10.351562 C 1.265625 -7.09375 0.824219 -3.257812 0.957031 0.289062 C 0.957031 0.726562 1.648438 1.015625 1.859375 0.535156 C 3.929688 -4.351562 5.519531 -9.449219 8.511719 -13.878906 C 8.855469 -14.414062 8.011719 -14.894531 7.667969 -14.378906 Z M 7.667969 -14.378906 "/></g></g></g><g fill="#006650" fill-opacity="1"><g transform="translate(59.291106, 53.841087)"><g><path d="M 3.71875 -5.808594 C 3.164062 -5.042969 2.550781 -4.21875 1.746094 -3.660156 C 1.226562 -3.316406 0.804688 -3.238281 0.863281 -3.988281 C 0.976562 -5.195312 1.648438 -6.363281 2.089844 -7.476562 C 2.320312 -8.070312 1.378906 -8.320312 1.148438 -7.746094 C 0.804688 -6.863281 0.382812 -6 0.113281 -5.078125 C -0.078125 -4.390625 -0.324219 -3.46875 0.171875 -2.855469 C 1.535156 -1.132812 3.929688 -4.410156 4.5625 -5.328125 C 4.925781 -5.847656 4.101562 -6.308594 3.71875 -5.808594 Z M 2.183594 -9.21875 C 2.183594 -9.21875 2.203125 -9.21875 2.222656 -9.21875 C 2.472656 -9.257812 2.722656 -9.429688 2.703125 -9.71875 C 2.703125 -9.96875 2.492188 -10.238281 2.222656 -10.21875 C 2.203125 -10.21875 2.183594 -10.21875 2.183594 -10.199219 C 1.917969 -10.179688 1.667969 -10.007812 1.6875 -9.71875 C 1.707031 -9.46875 1.898438 -9.203125 2.183594 -9.21875 Z M 2.183594 -9.21875 "/></g></g></g><g fill="#006650" fill-opacity="1"><g transform="translate(62.837309, 53.841087)"><g><path d="M 0.554688 -3.296875 C 0.691406 -2.722656 0.957031 -1.9375 1.726562 -2.203125 C 2.394531 -2.453125 2.992188 -3.546875 3.375 -4.082031 C 4.179688 -5.234375 4.851562 -6.480469 5.75 -7.550781 C 6.152344 -8.03125 5.464844 -8.722656 5.0625 -8.242188 C 3.890625 -6.824219 3.007812 -5.175781 1.878906 -3.71875 C 1.78125 -3.605469 1.707031 -3.46875 1.589844 -3.375 C 1.4375 -3.203125 1.496094 -3.277344 1.550781 -3.21875 C 1.324219 -3.414062 1.34375 -4.542969 1.304688 -4.8125 C 1.207031 -5.789062 1.1875 -6.765625 0.996094 -7.746094 C 0.863281 -8.339844 0 -8.070312 0.0976562 -7.496094 C 0.289062 -6.113281 0.230469 -4.675781 0.554688 -3.296875 Z M 0.554688 -3.296875 "/></g></g></g><g fill="#006650" fill-opacity="1"><g transform="translate(68.319544, 53.841087)"><g><path d="M 5.539062 -5.867188 C 4.886719 -5.0625 4.199219 -4.160156 3.257812 -3.640625 C 2.605469 -3.277344 1.820312 -3.21875 1.324219 -3.910156 C 1.09375 -4.21875 1.054688 -4.5625 1.113281 -4.925781 C 2.453125 -5.023438 4.582031 -5.921875 4.21875 -7.648438 C 3.871094 -9.316406 1.820312 -8.242188 1.1875 -7.417969 C 0.078125 -5.980469 -0.574219 -3.355469 1.609375 -2.53125 C 3.488281 -1.800781 5.214844 -3.890625 6.210938 -5.195312 C 6.574219 -5.65625 5.941406 -6.34375 5.539062 -5.867188 Z M 3.296875 -7.457031 C 3.46875 -7.207031 3.046875 -6.691406 2.894531 -6.535156 C 2.492188 -6.113281 1.957031 -5.921875 1.398438 -5.828125 C 1.398438 -5.867188 1.417969 -5.902344 1.4375 -5.941406 C 1.589844 -6.289062 2.816406 -8.242188 3.296875 -7.457031 Z M 3.296875 -7.457031 "/></g></g></g><g fill="#006650" fill-opacity="1"><g transform="translate(73.705939, 53.841087)"><g><path d="M 3.527344 -8.359375 C 2.796875 -8.472656 2.183594 -8.222656 1.667969 -7.746094 C 1.6875 -7.992188 1.6875 -8.222656 1.628906 -8.433594 C 1.476562 -9.027344 0.632812 -8.78125 0.746094 -8.203125 C 0.882812 -7.476562 0.382812 -6.308594 0.171875 -5.617188 C 0.0585938 -5.15625 -0.078125 -4.695312 -0.230469 -4.238281 C -0.34375 -3.910156 -0.441406 -3.585938 -0.515625 -3.316406 C -0.59375 -3.125 -0.652344 -2.933594 -0.710938 -2.761719 C -0.921875 -2.167969 0.0195312 -1.917969 0.230469 -2.511719 C 0.441406 -3.164062 0.652344 -3.816406 0.863281 -4.484375 C 1.265625 -5.597656 1.800781 -6.710938 2.722656 -7.226562 C 3.777344 -7.800781 3.738281 -6.785156 3.621094 -6.039062 C 3.429688 -4.851562 2.953125 -3.699219 2.472656 -2.605469 C 2.242188 -2.050781 3.066406 -1.550781 3.316406 -2.128906 C 3.777344 -3.21875 6.058594 -7.957031 3.527344 -8.359375 Z M 3.527344 -8.359375 "/></g></g></g><g fill="#006650" fill-opacity="1"><g transform="translate(79.111503, 53.841087)"><g><path d="M 2.359375 -7.992188 C 1.246094 -7.324219 0.402344 -6.230469 0.171875 -4.945312 C -0.0976562 -3.546875 0.746094 -2.492188 2.203125 -2.472656 C 3.910156 -2.453125 5.445312 -3.816406 6.535156 -4.984375 C 6.957031 -5.445312 6.269531 -6.132812 5.847656 -5.675781 C 5.195312 -4.964844 4.484375 -4.3125 3.621094 -3.851562 C 2.703125 -3.375 0.902344 -3.125 1.113281 -4.695312 C 1.1875 -5.347656 1.535156 -6 1.992188 -6.480469 C 2.359375 -6.863281 3.507812 -8.011719 3.738281 -7.09375 C 3.832031 -6.691406 4.542969 -6.765625 4.484375 -7.207031 C 4.332031 -8.453125 3.335938 -8.605469 2.359375 -7.992188 Z M 2.359375 -7.992188 "/></g></g></g><g fill="#006650" fill-opacity="1"><g transform="translate(84.938778, 53.841087)"><g><path d="M 3.71875 -5.808594 C 3.164062 -5.042969 2.550781 -4.21875 1.746094 -3.660156 C 1.226562 -3.316406 0.804688 -3.238281 0.863281 -3.988281 C 0.976562 -5.195312 1.648438 -6.363281 2.089844 -7.476562 C 2.320312 -8.070312 1.378906 -8.320312 1.148438 -7.746094 C 0.804688 -6.863281 0.382812 -6 0.113281 -5.078125 C -0.078125 -4.390625 -0.324219 -3.46875 0.171875 -2.855469 C 1.535156 -1.132812 3.929688 -4.410156 4.5625 -5.328125 C 4.925781 -5.847656 4.101562 -6.308594 3.71875 -5.808594 Z M 2.183594 -9.21875 C 2.183594 -9.21875 2.203125 -9.21875 2.222656 -9.21875 C 2.472656 -9.257812 2.722656 -9.429688 2.703125 -9.71875 C 2.703125 -9.96875 2.492188 -10.238281 2.222656 -10.21875 C 2.203125 -10.21875 2.183594 -10.21875 2.183594 -10.199219 C 1.917969 -10.179688 1.667969 -10.007812 1.6875 -9.71875 C 1.707031 -9.46875 1.898438 -9.203125 2.183594 -9.21875 Z M 2.183594 -9.21875 "/></g></g></g><g fill="#006650" fill-opacity="1"><g transform="translate(88.484981, 53.841087)"><g><path d="M 7.4375 -5.15625 C 7.074219 -4.523438 6.269531 -3.21875 5.464844 -3.414062 C 4.273438 -3.679688 4.851562 -5.539062 5.367188 -6.785156 C 5.539062 -7.148438 5.691406 -7.457031 5.789062 -7.6875 C 6.058594 -8.242188 5.234375 -8.742188 4.964844 -8.167969 C 4.886719 -8.050781 4.8125 -7.898438 4.734375 -7.726562 C 2.320312 -9.066406 -1.667969 -5.15625 0.535156 -3.046875 C 1.726562 -1.9375 2.875 -2.761719 3.816406 -4.042969 C 3.871094 -3.355469 4.179688 -2.742188 4.867188 -2.394531 C 6.269531 -1.6875 7.707031 -3.660156 8.28125 -4.675781 C 8.585938 -5.214844 7.746094 -5.710938 7.4375 -5.15625 Z M 2.242188 -3.796875 C 0.902344 -2.875 0.765625 -4.792969 1.324219 -5.636719 C 1.957031 -6.59375 3.257812 -7.515625 4.371094 -6.882812 C 3.832031 -5.691406 3.203125 -4.449219 2.242188 -3.796875 Z M 2.242188 -3.796875 "/></g></g></g><g fill="#006650" fill-opacity="1"><g transform="translate(95.922422, 53.841087)"><g><path d="M 4.734375 -8.03125 C 3.46875 -8.394531 2.472656 -7.972656 1.648438 -7.207031 C 1.726562 -7.515625 1.820312 -7.800781 1.917969 -8.109375 C 2.089844 -8.683594 1.1875 -8.933594 1.015625 -8.359375 C 0.535156 -6.824219 0.0976562 -5.289062 -0.460938 -3.777344 C -0.613281 -3.429688 -0.746094 -3.105469 -0.863281 -2.796875 C -1.074219 -2.203125 -0.152344 -1.972656 0.078125 -2.550781 C 0.230469 -2.894531 0.363281 -3.257812 0.5 -3.605469 C 1.226562 -5.40625 2.472656 -7.667969 4.464844 -7.09375 C 5.0625 -6.921875 5.328125 -7.859375 4.734375 -8.03125 Z M 4.734375 -8.03125 "/></g></g></g></svg>