<svg width="50" height="50" viewBox="0 0 50 50" fill="none" xmlns="http://www.w3.org/2000/svg">
<circle cx="25" cy="25" r="24" stroke="#006650" stroke-opacity="0.9" stroke-width="2"/>
<g clip-path="url(#clip0_0_331)">
<path fill-rule="evenodd" clip-rule="evenodd" d="M25 26.25C27.995 26.25 30.7188 27.1175 32.7225 28.3388C33.7225 28.9513 34.5775 29.67 35.195 30.4513C35.8025 31.2213 36.25 32.1413 36.25 33.125C36.25 34.1813 35.7362 35.0138 34.9963 35.6075C34.2962 36.17 33.3725 36.5425 32.3913 36.8025C30.4188 37.3238 27.7863 37.5 25 37.5C22.2137 37.5 19.5812 37.325 17.6087 36.8025C16.6275 36.5425 15.7037 36.17 15.0037 35.6075C14.2625 35.0125 13.75 34.1813 13.75 33.125C13.75 32.1413 14.1975 31.2213 14.805 30.4513C15.4225 29.67 16.2763 28.9513 17.2775 28.3388C19.2812 27.1175 22.0063 26.25 25 26.25ZM25 28.75C22.4712 28.75 20.1962 29.4875 18.58 30.4738C17.7712 30.9663 17.1613 31.5013 16.7675 32.0013C16.3625 32.5138 16.25 32.9013 16.25 33.125C16.25 33.2775 16.2963 33.4388 16.5688 33.6575C16.88 33.9075 17.4212 34.1663 18.2487 34.385C19.8962 34.8225 22.2638 35 25 35C27.7375 35 30.1038 34.8213 31.75 34.385C32.5787 34.1663 33.12 33.9075 33.4313 33.6575C33.7038 33.4388 33.75 33.2775 33.75 33.125C33.75 32.9 33.6375 32.5138 33.2337 32.0013C32.8387 31.5013 32.2288 30.9663 31.42 30.4738C29.8037 29.4863 27.5288 28.75 25 28.75ZM25 12.5C26.6576 12.5 28.2473 13.1585 29.4194 14.3306C30.5915 15.5027 31.25 17.0924 31.25 18.75C31.25 20.4076 30.5915 21.9973 29.4194 23.1694C28.2473 24.3415 26.6576 25 25 25C23.3424 25 21.7527 24.3415 20.5806 23.1694C19.4085 21.9973 18.75 20.4076 18.75 18.75C18.75 17.0924 19.4085 15.5027 20.5806 14.3306C21.7527 13.1585 23.3424 12.5 25 12.5ZM25 15C24.5075 15 24.0199 15.097 23.5649 15.2855C23.11 15.4739 22.6966 15.7501 22.3483 16.0984C22.0001 16.4466 21.7239 16.86 21.5355 17.3149C21.347 17.7699 21.25 18.2575 21.25 18.75C21.25 19.2425 21.347 19.7301 21.5355 20.1851C21.7239 20.64 22.0001 21.0534 22.3483 21.4017C22.6966 21.7499 23.11 22.0261 23.5649 22.2145C24.0199 22.403 24.5075 22.5 25 22.5C25.9946 22.5 26.9484 22.1049 27.6517 21.4017C28.3549 20.6984 28.75 19.7446 28.75 18.75C28.75 17.7554 28.3549 16.8016 27.6517 16.0984C26.9484 15.3951 25.9946 15 25 15Z" fill="#006650" fill-opacity="0.9"/>
</g>
<defs>
<clipPath id="clip0_0_331">
<rect width="30" height="30" fill="white" transform="translate(10 10)"/>
</clipPath>
</defs>
</svg>
