<svg width="96" height="26" viewBox="0 0 96 26" fill="none" xmlns="http://www.w3.org/2000/svg">
<path d="M38.0789 8.9614V11.9644H42.1115V13.8692H38.0789V17.0438H42.6263V19H35.6765V7.00516H42.6263V8.9614H38.0789ZM44.1917 14.2124C44.1917 13.2514 44.3805 12.3991 44.758 11.6555C45.147 10.9119 45.6732 10.3399 46.3367 9.93952C47.0002 9.53912 47.7381 9.33892 48.5504 9.33892C49.1681 9.33892 49.7573 9.4762 50.3178 9.75076C50.8784 10.0139 51.3246 10.3685 51.6563 10.8147V6.3016H54.093V19H51.6563V17.5929C51.3589 18.0619 50.9413 18.4394 50.4036 18.7254C49.866 19.0114 49.2425 19.1544 48.5332 19.1544C47.7324 19.1544 47.0002 18.9485 46.3367 18.5367C45.6732 18.1248 45.147 17.5471 44.758 16.8035C44.3805 16.0485 44.1917 15.1848 44.1917 14.2124ZM51.6735 14.2467C51.6735 13.6632 51.5591 13.1656 51.3303 12.7538C51.1015 12.3305 50.7926 12.0102 50.4036 11.7928C50.0147 11.564 49.5971 11.4496 49.151 11.4496C48.7048 11.4496 48.293 11.5583 47.9154 11.7756C47.5379 11.993 47.229 12.3133 46.9888 12.7366C46.76 13.1484 46.6456 13.6404 46.6456 14.2124C46.6456 14.7844 46.76 15.2877 46.9888 15.7224C47.229 16.1457 47.5379 16.4718 47.9154 16.7006C48.3044 16.9294 48.7162 17.0438 49.151 17.0438C49.5971 17.0438 50.0147 16.9351 50.4036 16.7177C50.7926 16.4889 51.1015 16.1686 51.3303 15.7568C51.5591 15.3335 51.6735 14.8301 51.6735 14.2467ZM57.6578 8.3608C57.2345 8.3608 56.8798 8.22924 56.5938 7.96612C56.3193 7.69156 56.182 7.35408 56.182 6.95368C56.182 6.55328 56.3193 6.22152 56.5938 5.95839C56.8798 5.68383 57.2345 5.54655 57.6578 5.54655C58.081 5.54655 58.43 5.68383 58.7045 5.95839C58.9905 6.22152 59.1335 6.55328 59.1335 6.95368C59.1335 7.35408 58.9905 7.69156 58.7045 7.96612C58.43 8.22924 58.081 8.3608 57.6578 8.3608ZM58.8418 9.49336V19H56.4394V9.49336H58.8418ZM64.0125 11.4668V16.0656C64.0125 16.386 64.0868 16.6205 64.2355 16.7692C64.3957 16.9065 64.6588 16.9751 65.0249 16.9751H66.1403V19H64.6302C62.6053 19 61.5929 18.0162 61.5929 16.0485V11.4668H60.4603V9.49336H61.5929V7.14244H64.0125V9.49336H66.1403V11.4668H64.0125ZM67.2505 14.2124C67.2505 13.2514 67.4392 12.3991 67.8168 11.6555C68.2057 10.9119 68.7262 10.3399 69.3783 9.93952C70.0418 9.53912 70.7797 9.33892 71.592 9.33892C72.3012 9.33892 72.919 9.48192 73.4452 9.76792C73.9829 10.0539 74.4119 10.4143 74.7322 10.849V9.49336H77.1518V19H74.7322V17.61C74.4234 18.0562 73.9944 18.428 73.4452 18.7254C72.9076 19.0114 72.2841 19.1544 71.5748 19.1544C70.774 19.1544 70.0418 18.9485 69.3783 18.5367C68.7262 18.1248 68.2057 17.5471 67.8168 16.8035C67.4392 16.0485 67.2505 15.1848 67.2505 14.2124ZM74.7322 14.2467C74.7322 13.6632 74.6178 13.1656 74.389 12.7538C74.1602 12.3305 73.8514 12.0102 73.4624 11.7928C73.0734 11.564 72.6559 11.4496 72.2097 11.4496C71.7636 11.4496 71.3517 11.5583 70.9742 11.7756C70.5967 11.993 70.2878 12.3133 70.0476 12.7366C69.8188 13.1484 69.7044 13.6404 69.7044 14.2124C69.7044 14.7844 69.8188 15.2877 70.0476 15.7224C70.2878 16.1457 70.5967 16.4718 70.9742 16.7006C71.3632 16.9294 71.775 17.0438 72.2097 17.0438C72.6559 17.0438 73.0734 16.9351 73.4624 16.7177C73.8514 16.4889 74.1602 16.1686 74.389 15.7568C74.6178 15.3335 74.7322 14.8301 74.7322 14.2467ZM81.9006 10.9691C82.2094 10.4658 82.6098 10.0711 83.1018 9.78508C83.6051 9.49908 84.1771 9.35608 84.8178 9.35608V11.8786H84.1828C83.4278 11.8786 82.8558 12.0559 82.4668 12.4106C82.0893 12.7652 81.9006 13.383 81.9006 14.2638V19H79.4982V9.49336H81.9006V10.9691Z" fill="#006650" fill-opacity="0.9"/>
<path d="M17.0867 3.11891C17.574 2.63194 18.2348 2.3584 18.9237 2.3584C19.6126 2.3584 20.2733 2.63194 20.7606 3.11891L22.3733 4.73162C22.8603 5.21892 23.1338 5.87965 23.1338 6.56856C23.1338 7.25747 22.8603 7.9182 22.3733 8.40551L9.58748 21.1914C9.27563 21.5032 8.88953 21.7319 8.46482 21.8522L3.63709 23.2332C3.446 23.2878 3.24378 23.2903 3.05141 23.2404C2.85904 23.1905 2.68352 23.0901 2.54307 22.9495C2.40262 22.8089 2.30235 22.6332 2.25266 22.4408C2.20297 22.2484 2.20567 22.0462 2.26049 21.8552L3.64006 17.0289C3.76034 16.6042 3.98903 16.2166 4.30088 15.9033L17.0867 3.11742V3.11891ZM17.3481 10.2811L15.2112 8.14266L5.87647 17.4789C5.83181 17.5235 5.79913 17.5786 5.78143 17.6392L4.9528 20.5394L7.853 19.7108C7.9136 19.6931 7.96875 19.6604 8.01338 19.6158L17.3481 10.2811ZM19.1865 4.69301C19.152 4.65843 19.1111 4.631 19.066 4.61229C19.0209 4.59357 18.9725 4.58394 18.9237 4.58394C18.8748 4.58394 18.8265 4.59357 18.7814 4.61229C18.7363 4.631 18.6953 4.65843 18.6608 4.69301L16.7868 6.56856L18.9237 8.70696L20.7992 6.83141C20.8338 6.79692 20.8612 6.75595 20.8799 6.71085C20.8987 6.66575 20.9083 6.61739 20.9083 6.56856C20.9083 6.51973 20.8987 6.47138 20.8799 6.42627C20.8612 6.38117 20.8338 6.3402 20.7992 6.30572L19.1865 4.69301Z" fill="#006650" fill-opacity="0.9"/>
</svg>
