<svg width="31" height="30" viewBox="0 0 31 30" fill="none" xmlns="http://www.w3.org/2000/svg">
<path d="M9.25 15C9.25 15.663 8.98661 16.2989 8.51777 16.7678C8.04893 17.2366 7.41304 17.5 6.75 17.5C6.08696 17.5 5.45107 17.2366 4.98223 16.7678C4.51339 16.2989 4.25 15.663 4.25 15C4.25 14.337 4.51339 13.7011 4.98223 13.2322C5.45107 12.7634 6.08696 12.5 6.75 12.5C7.41304 12.5 8.04893 12.7634 8.51777 13.2322C8.98661 13.7011 9.25 14.337 9.25 15ZM18 15C18 15.663 17.7366 16.2989 17.2678 16.7678C16.7989 17.2366 16.163 17.5 15.5 17.5C14.837 17.5 14.2011 17.2366 13.7322 16.7678C13.2634 16.2989 13 15.663 13 15C13 14.337 13.2634 13.7011 13.7322 13.2322C14.2011 12.7634 14.837 12.5 15.5 12.5C16.163 12.5 16.7989 12.7634 17.2678 13.2322C17.7366 13.7011 18 14.337 18 15ZM26.75 15C26.75 15.663 26.4866 16.2989 26.0178 16.7678C25.5489 17.2366 24.913 17.5 24.25 17.5C23.587 17.5 22.9511 17.2366 22.4822 16.7678C22.0134 16.2989 21.75 15.663 21.75 15C21.75 14.337 22.0134 13.7011 22.4822 13.2322C22.9511 12.7634 23.587 12.5 24.25 12.5C24.913 12.5 25.5489 12.7634 26.0178 13.2322C26.4866 13.7011 26.75 14.337 26.75 15Z" fill="#006650" fill-opacity="0.9"/>
</svg>
