<svg width="109" height="109" viewBox="0 0 160 160" fill="none" xmlns="http://www.w3.org/2000/svg">
<circle cx="80" cy="80" r="79" stroke="#006650" stroke-opacity="0.9" stroke-width="2"/>
<g clip-path="url(#clip0_799_3377)">
<path fill-rule="evenodd" clip-rule="evenodd" d="M80 84C89.584 84 98.3 86.776 104.712 90.684C107.912 92.644 110.648 94.944 112.624 97.444C114.568 99.908 116 102.852 116 106C116 109.38 114.356 112.044 111.988 113.944C109.748 115.744 106.792 116.936 103.652 117.768C97.34 119.436 88.916 120 80 120C71.084 120 62.66 119.44 56.348 117.768C53.208 116.936 50.252 115.744 48.012 113.944C45.64 112.04 44 109.38 44 106C44 102.852 45.432 99.908 47.376 97.444C49.352 94.944 52.084 92.644 55.288 90.684C61.7 86.776 70.42 84 80 84ZM80 92C71.908 92 64.628 94.36 59.456 97.516C56.868 99.092 54.916 100.804 53.656 102.404C52.36 104.044 52 105.284 52 106C52 106.488 52.148 107.004 53.02 107.704C54.016 108.504 55.748 109.332 58.396 110.032C63.668 111.432 71.244 112 80 112C88.76 112 96.332 111.428 101.6 110.032C104.252 109.332 105.984 108.504 106.98 107.704C107.852 107.004 108 106.488 108 106C108 105.28 107.64 104.044 106.348 102.404C105.084 100.804 103.132 99.092 100.544 97.516C95.372 94.356 88.092 92 80 92ZM80 40C85.3043 40 90.3914 42.1071 94.1421 45.8579C97.8929 49.6086 100 54.6957 100 60C100 65.3043 97.8929 70.3914 94.1421 74.1421C90.3914 77.8929 85.3043 80 80 80C74.6957 80 69.6086 77.8929 65.8579 74.1421C62.1071 70.3914 60 65.3043 60 60C60 54.6957 62.1071 49.6086 65.8579 45.8579C69.6086 42.1071 74.6957 40 80 40ZM80 48C78.4241 48 76.8637 48.3104 75.4078 48.9134C73.9519 49.5165 72.629 50.4004 71.5147 51.5147C70.4004 52.629 69.5165 53.9519 68.9134 55.4078C68.3104 56.8637 68 58.4241 68 60C68 61.5759 68.3104 63.1363 68.9134 64.5922C69.5165 66.0481 70.4004 67.371 71.5147 68.4853C72.629 69.5996 73.9519 70.4835 75.4078 71.0866C76.8637 71.6896 78.4241 72 80 72C83.1826 72 86.2348 70.7357 88.4853 68.4853C90.7357 66.2348 92 63.1826 92 60C92 56.8174 90.7357 53.7652 88.4853 51.5147C86.2348 49.2643 83.1826 48 80 48Z" fill="#006650" fill-opacity="0.9"/>
</g>
<defs>
<clipPath id="clip0_799_3377">
<rect width="96" height="96" fill="white" transform="translate(32 32)"/>
</clipPath>
</defs>
</svg>
