<svg width="55" height="55" viewBox="0 0 60 60" fill="none" xmlns="http://www.w3.org/2000/svg">
<circle cx="30" cy="30" r="29" stroke="#006650" stroke-opacity="0.9" stroke-width="2"/>
<g clip-path="url(#clip0_853_3913)">
<path fill-rule="evenodd" clip-rule="evenodd" d="M30 31.5C33.594 31.5 36.8625 32.541 39.267 34.0065C40.467 34.7415 41.493 35.604 42.234 36.5415C42.963 37.4655 43.5 38.5695 43.5 39.75C43.5 41.0175 42.8835 42.0165 41.9955 42.729C41.1555 43.404 40.047 43.851 38.8695 44.163C36.5025 44.7885 33.3435 45 30 45C26.6565 45 23.4975 44.79 21.1305 44.163C19.953 43.851 18.8445 43.404 18.0045 42.729C17.115 42.015 16.5 41.0175 16.5 39.75C16.5 38.5695 17.037 37.4655 17.766 36.5415C18.507 35.604 19.5315 34.7415 20.733 34.0065C23.1375 32.541 26.4075 31.5 30 31.5ZM30 34.5C26.9655 34.5 24.2355 35.385 22.296 36.5685C21.3255 37.1595 20.5935 37.8015 20.121 38.4015C19.635 39.0165 19.5 39.4815 19.5 39.75C19.5 39.933 19.5555 40.1265 19.8825 40.389C20.256 40.689 20.9055 40.9995 21.8985 41.262C23.8755 41.787 26.7165 42 30 42C33.285 42 36.1245 41.7855 38.1 41.262C39.0945 40.9995 39.744 40.689 40.1175 40.389C40.4445 40.1265 40.5 39.933 40.5 39.75C40.5 39.48 40.365 39.0165 39.8805 38.4015C39.4065 37.8015 38.6745 37.1595 37.704 36.5685C35.7645 35.3835 33.0345 34.5 30 34.5ZM30 15C31.9891 15 33.8968 15.7902 35.3033 17.1967C36.7098 18.6032 37.5 20.5109 37.5 22.5C37.5 24.4891 36.7098 26.3968 35.3033 27.8033C33.8968 29.2098 31.9891 30 30 30C28.0109 30 26.1032 29.2098 24.6967 27.8033C23.2902 26.3968 22.5 24.4891 22.5 22.5C22.5 20.5109 23.2902 18.6032 24.6967 17.1967C26.1032 15.7902 28.0109 15 30 15ZM30 18C29.4091 18 28.8239 18.1164 28.2779 18.3425C27.732 18.5687 27.2359 18.9002 26.818 19.318C26.4002 19.7359 26.0687 20.232 25.8425 20.7779C25.6164 21.3239 25.5 21.9091 25.5 22.5C25.5 23.0909 25.6164 23.6761 25.8425 24.2221C26.0687 24.768 26.4002 25.2641 26.818 25.682C27.2359 26.0998 27.732 26.4313 28.2779 26.6575C28.8239 26.8836 29.4091 27 30 27C31.1935 27 32.3381 26.5259 33.182 25.682C34.0259 24.8381 34.5 23.6935 34.5 22.5C34.5 21.3065 34.0259 20.1619 33.182 19.318C32.3381 18.4741 31.1935 18 30 18Z" fill="#006650" fill-opacity="0.9"/>
</g>
<defs>
<clipPath id="clip0_853_3913">
<rect width="36" height="36" fill="white" transform="translate(12 12)"/>
</clipPath>
</defs>
</svg>
