<svg width="25" height="25" viewBox="0 0 25 25" fill="none" xmlns="http://www.w3.org/2000/svg">
<path d="M11.2292 17.3542H13.2709V11.2292H11.2292V17.3542ZM12.2501 9.1875C12.5393 9.1875 12.7819 9.0895 12.9779 8.8935C13.1739 8.6975 13.2716 8.45523 13.2709 8.16667C13.2709 7.87744 13.1729 7.63482 12.9769 7.43882C12.7809 7.24282 12.5386 7.14516 12.2501 7.14584C11.9608 7.14584 11.7182 7.24384 11.5222 7.43984C11.3262 7.63584 11.2286 7.87812 11.2292 8.16667C11.2292 8.45591 11.3272 8.69853 11.5232 8.89453C11.7192 9.09053 11.9615 9.18819 12.2501 9.1875ZM12.2501 22.4583C10.8379 22.4583 9.51085 22.1902 8.26883 21.6539C7.02682 21.1176 5.94644 20.3905 5.02769 19.4724C4.10894 18.5536 3.38176 17.4733 2.84616 16.2313C2.31057 14.9892 2.04243 13.6622 2.04175 12.25C2.04175 10.8379 2.30989 9.51077 2.84616 8.26875C3.38244 7.02674 4.10962 5.94636 5.02769 5.02761C5.94644 4.10886 7.02682 3.38169 8.26883 2.84609C9.51085 2.31049 10.8379 2.04235 12.2501 2.04167C13.6622 2.04167 14.9893 2.30981 16.2313 2.84609C17.4733 3.38237 18.5537 4.10954 19.4725 5.02761C20.3912 5.94636 21.1187 7.02674 21.655 8.26875C22.1913 9.51077 22.4591 10.8379 22.4584 12.25C22.4584 13.6622 22.1903 14.9892 21.654 16.2313C21.1177 17.4733 20.3905 18.5536 19.4725 19.4724C18.5537 20.3911 17.4733 21.1187 16.2313 21.6549C14.9893 22.1912 13.6622 22.459 12.2501 22.4583Z" fill="#006650" fill-opacity="0.9"/>
</svg>
