<svg width="25" height="25" viewBox="0 0 32 32" fill="none" xmlns="http://www.w3.org/2000/svg">
<path d="M16 5.09999C12.1 5.09999 9 8.19999 9 12.1C9 14.5 10.2 16.7 12.1 17.9C8.5 19.3 6 22.9 6 27H8C8 22.6 11.6 19 16 19C16.6 19 17.1 19.1 17.6 19.2C17.646 19.137 17.707 19.083 17.756 19.021C16.6206 20.4322 16.0011 22.1887 16 24C16 28.4 19.6 32 24 32C28.4 32 32 28.4 32 24C32 19.6 28.4 16 24 16C23.1355 16.0017 22.2772 16.1449 21.459 16.424C22.2854 15.3992 22.8041 14.161 22.9547 12.8532C23.1054 11.5454 22.882 10.2216 22.3103 9.03579C21.7386 7.84992 20.8422 6.8506 19.7252 6.15391C18.6082 5.45722 17.3164 5.09176 16 5.09999ZM16 6.99999C18.8 6.99999 21 9.19999 21 12C21 14.8 18.8 17 16 17C13.2 17 11 14.8 11 12C11 9.19999 13.2 6.99999 16 6.99999ZM19.275 17.566L19.189 17.629C19.2175 17.6078 19.2462 17.5868 19.275 17.566ZM24 18C27.3 18 30 20.7 30 24C30 27.3 27.3 30 24 30C20.7 30 18 27.3 18 24C18 20.7 20.7 18 24 18ZM23 20V24.6L21.3 26.3L22.7 27.7L25 25.4V20H23Z" fill="#006650"/>
</svg>
