<svg width="174" height="74" viewBox="0 0 174 74" fill="none" xmlns="http://www.w3.org/2000/svg">
<mask id="mask0_75_3241" style="mask-type:luminance" maskUnits="userSpaceOnUse" x="27" y="0" width="6" height="7">
<path d="M27.6777 0.280029H32.0841V6.49948H27.6777V0.280029Z" fill="white"/>
</mask>
<g mask="url(#mask0_75_3241)">
<path d="M28.0239 3.30748C28.0239 2.01654 29.1848 1.20946 29.9192 0.301025C30.6689 1.19608 31.7399 2.04523 31.7992 3.30748C31.9178 4.65579 30.6689 5.49155 29.9039 6.43059C29.1561 5.49155 27.9226 4.65579 28.0239 3.30748Z" fill="white"/>
</g>
<path d="M18.9909 6.70992C18.7863 4.6865 20.4463 3.2636 21.5919 1.8407C22.9727 3.07235 24.8374 4.23132 24.9694 6.27005C25.1893 8.33746 23.5006 9.78905 22.3263 11.2406C20.9589 9.965 19.0502 8.77734 18.9909 6.70992Z" fill="white"/>
<path d="M34.8247 6.22606C34.9873 4.20264 36.8367 3.04366 38.2328 1.8407C39.3784 3.2483 41.0824 4.6559 40.8185 6.67932C40.7879 8.74865 38.8505 9.93631 37.4984 11.1966C36.2801 9.77375 34.5761 8.32216 34.8247 6.22606Z" fill="white"/>
<path d="M13.8941 4.49524C14.6724 4.78785 15.6421 4.93511 16.1126 5.71159C16.3918 6.54735 16.1279 7.4424 16.0973 8.30876C15.1582 8.24948 14.3052 7.86889 13.5269 7.38503C13.6148 6.41539 13.7334 5.44766 13.8941 4.49524Z" fill="white"/>
<path d="M43.7119 5.69813C44.1957 5.0517 45.0047 4.75909 45.6645 4.31921C46.0317 5.27164 46.2517 6.28335 46.311 7.32566C45.5326 7.80953 44.6815 8.19011 43.7693 8.38136C43.7119 7.50161 43.4174 6.56258 43.7119 5.69813Z" fill="white"/>
<path d="M8.18144 11.8564C8.57732 10.8447 9.415 10.1122 10.0748 9.28979C10.9718 10.2288 12.3086 11.1392 12.1174 12.6348C12.146 13.9831 10.8838 14.7615 10.0901 15.6546C9.16446 14.5989 7.75495 13.4552 8.18144 11.8564Z" fill="white"/>
<path d="M47.6041 12.5909C47.5601 11.1527 48.8377 10.2136 49.7327 9.27649C50.5417 10.3609 51.9665 11.3879 51.672 12.9275C51.4081 14.0577 50.4098 14.8055 49.6888 15.67C48.853 14.7615 47.6768 13.9392 47.6041 12.5909Z" fill="white"/>
<path d="M16.113 12.5315C18.3009 13.6312 20.9745 14.9661 21.401 17.6493C22.0168 20.2025 20.1675 22.3273 18.888 24.3087C16.7307 23.0617 13.9251 21.7708 13.6592 18.9556C13.1314 16.4617 14.9521 14.4975 16.113 12.5315Z" fill="white"/>
<path d="M38.3951 17.592C38.8503 14.9069 41.5374 13.6752 43.6813 12.5162C44.4463 13.7938 45.3719 14.9948 45.9438 16.389C46.6189 18.3398 46.0757 20.6998 44.4597 22.0347C43.3734 22.9298 42.1245 23.6049 40.9196 24.3221C39.6727 22.314 37.7181 20.172 38.3951 17.592Z" fill="white"/>
<path d="M3.73145 13.088C4.47923 13.1473 5.22893 13.2353 5.97863 13.308C6.16988 14.1456 6.35922 14.9661 6.52178 15.8171C5.64012 15.7139 4.77376 15.5666 3.9074 15.3467C3.83281 14.5855 3.77543 13.8377 3.73145 13.088Z" fill="white"/>
<path d="M3.23232 18.1486C5.06832 18.1772 7.27152 18.6611 8.0786 20.5105C9.07692 22.1227 8.16657 24.0008 7.68271 25.613C6.11064 25.0412 4.14267 24.8366 3.17304 23.2817C2.15941 21.7115 2.90911 19.8048 3.23232 18.1486Z" fill="white"/>
<path d="M51.7023 20.4665C52.5534 18.7051 54.6686 18.4278 56.3286 17.856C56.8278 19.5409 57.7534 21.5222 56.6805 23.1784C55.7855 24.85 53.7276 25.0412 52.1135 25.6284C51.643 23.9855 50.7327 22.0941 51.7023 20.4665Z" fill="white"/>
<path d="M10.7213 25.0851C10.1934 23.9702 11.0158 22.9145 11.4997 21.962C12.324 22.6658 13.7335 23.1497 13.7335 24.4406C13.6149 25.2611 13.175 25.9802 12.8518 26.7433C12.1174 26.2441 11.1918 25.8769 10.7213 25.0851Z" fill="white"/>
<path d="M46.0914 24.4101C46.0474 23.1498 47.4282 22.6353 48.2353 21.9315C48.6904 22.8113 49.4994 23.7369 49.1609 24.7926C48.8664 25.8177 47.7208 26.1715 46.929 26.7281C46.6345 25.9803 46.1353 25.2459 46.0914 24.4101Z" fill="white"/>
<mask id="mask1_75_3241" style="mask-type:luminance" maskUnits="userSpaceOnUse" x="0" y="24" width="4" height="5">
<path d="M0 24.6147H3.1977V28.0419H0V24.6147Z" fill="white"/>
</mask>
<g mask="url(#mask1_75_3241)">
<path d="M0 25.0259C0.675112 25.2324 1.4841 25.1731 2.05594 25.6283C2.62969 26.1562 2.70236 26.9919 2.9223 27.6957C1.99665 27.5925 1.0863 27.4165 0.20655 27.1239C0.116662 26.4201 0.0592876 25.7163 0 25.0259Z" fill="white"/>
</g>
<path d="M22.7815 25.2172C24.4855 26.0816 26.5262 27.0073 27.0693 29.0441C27.731 31.1134 26.1876 32.9016 25.2773 34.6037C23.6172 33.68 21.5919 32.8136 21.0182 30.8342C20.2551 28.7515 21.8711 26.948 22.7815 25.2172Z" fill="white"/>
<path d="M32.7096 29.132C33.1647 27.0359 35.3106 26.0969 37.028 25.2324C38.0129 26.9919 39.6424 28.9561 38.7033 31.0828C38.0722 32.9455 36.1329 33.7239 34.5322 34.5884C33.5625 32.9321 32.153 31.186 32.7096 29.132Z" fill="white"/>
<mask id="mask2_75_3241" style="mask-type:luminance" maskUnits="userSpaceOnUse" x="56" y="25" width="4" height="4">
<path d="M56.0742 25.5939H59.8533V28.5315H56.0742V25.5939Z" fill="white"/>
</mask>
<g mask="url(#mask2_75_3241)">
<path d="M56.1528 27.9596C56.608 27.0358 57.2678 26.2594 58.2375 25.8616C58.7672 26.0968 59.3104 26.3167 59.8535 26.552C59.5016 27.0798 59.1344 27.6077 58.7806 28.1355C57.9009 28.0915 57.0192 28.0323 56.1528 27.9596Z" fill="white"/>
</g>
<path d="M52.7295 16.2571C52.9934 15.2741 53.4945 14.3657 54.3609 13.7938C54.9327 13.9105 55.5064 14.0271 56.0783 14.1457C55.8297 14.7309 55.5791 15.3181 55.3305 15.9052C54.4622 16.0506 53.5959 16.1691 52.7295 16.2571Z" fill="white"/>
<path d="M1.35198 30.0137C3.20136 30.7022 5.41986 31.3027 6.22694 33.3127C7.21187 34.9556 6.60944 36.891 6.30152 38.6352C4.61279 37.9467 2.55494 37.4782 1.6159 35.732C0.483703 34.0318 0.998165 31.8898 1.35198 30.0137Z" fill="white"/>
<path d="M53.2591 33.3127C54.2574 31.6546 56.2253 31.098 57.9294 30.4669C58.1933 32.2417 58.8244 34.1772 57.8261 35.8506C57.0037 37.83 54.7565 38.3273 52.9932 39.1057C52.6126 37.2142 52.0389 35.0282 53.2591 33.3127Z" fill="white"/>
<path d="M48.3537 41.1138C49.0288 40.5726 49.9238 40.454 50.7328 40.1901C50.7615 41.2171 51.2913 42.42 50.5702 43.3151C49.9831 44.1509 48.8662 44.1069 47.9865 44.3842C47.9712 43.3285 47.4127 41.9515 48.3537 41.1138Z" fill="white"/>
<path d="M7.94666 41.2458C8.96029 41.4964 9.91462 41.8923 10.7657 42.4928C10.7217 43.4911 10.6643 44.4875 10.561 45.4706C9.67939 45.134 8.48981 45.1474 7.96196 44.2389C7.38821 43.3286 7.84339 42.2155 7.94666 41.2458Z" fill="white"/>
<path d="M15.7741 29.4858C15.8774 29.044 15.7454 28.6787 15.5255 28.3555C15.1277 27.7837 14.2766 27.799 13.9247 28.3842C13.7928 28.6041 13.6895 28.8547 13.6589 29.132C13.395 31.186 13.7029 33.2534 14.16 35.2482C14.9517 33.416 15.5542 31.4652 15.7741 29.4858Z" fill="white"/>
<path d="M44.0351 29.4992C44.0791 29.1473 43.9758 28.8394 43.8285 28.5468C43.446 27.843 42.4477 27.8277 42.0671 28.5315C41.9639 28.7074 41.9046 28.8987 41.9199 29.1186C41.9486 31.23 42.683 33.2535 43.5053 35.1755C43.7119 33.3127 44.0638 31.406 44.0351 29.4992Z" fill="white"/>
<path d="M26.1306 49.3567C26.2779 47.3466 27.1003 45.4705 28.0986 43.7396C25.5875 40.1461 22.1354 37.2142 18.3754 35.0129C18.3888 36.0265 18.2282 37.1396 18.8746 38.0194C20.0355 39.8974 21.6649 41.4083 22.9578 43.1831C22.4873 43.6364 21.9882 44.5027 21.1945 44.1202C18.8306 42.9919 16.7747 41.2171 15.084 39.2223C13.0281 36.7437 12.7355 33.4294 12.3683 30.3789C12.353 29.2792 10.7369 28.4148 10.1785 29.6464C9.57604 32.1097 10.2664 34.6763 10.5457 37.1549C11.0008 40.8805 12.8808 44.2675 15.3193 47.054C18.1689 50.2804 21.445 53.0822 24.4706 56.146C25.3216 53.9467 25.9681 51.688 26.1306 49.3567Z" fill="white"/>
<mask id="mask3_75_3241" style="mask-type:luminance" maskUnits="userSpaceOnUse" x="19" y="29" width="29" height="45">
<path d="M19.3545 29.5107H47.7513V73.7201H19.3545V29.5107Z" fill="white"/>
</mask>
<g mask="url(#mask3_75_3241)">
<path d="M47.3094 34.5884C46.9422 37.6829 46.5616 40.9092 45.0048 43.6805C42.3005 48.565 37.8368 52.0553 33.9582 55.9262C32.8413 57.0565 31.3591 58.0242 31.0053 59.667C29.831 64.0371 28.7141 68.4952 28.4502 73.0259V73.5403H27.7751C25.0421 73.701 22.3111 73.525 19.5781 73.5996C19.712 73.2171 19.844 72.8365 19.9759 72.454C21.8119 66.2518 24.5296 60.3403 26.6735 54.2394C27.7598 51.4682 27.2319 48.3011 28.7294 45.6618C30.5501 41.9802 33.9142 39.473 37.0431 36.9791C37.6742 36.4952 38.3952 36.172 39.0837 35.8201C39.4815 39.341 36.1174 41.3778 34.4287 44.0037C34.9565 44.5315 35.6183 45.4266 36.4559 44.8107C39.8334 42.904 43.1535 40.1328 44.2111 36.2466C44.7829 34.4565 44.6376 32.5363 45.1501 30.7462C45.46 29.7632 46.7375 29.4266 47.2654 30.4383C47.5886 31.8172 47.4279 33.2248 47.3094 34.5884Z" fill="white"/>
</g>
<path d="M16.6712 39.6335C17.287 36.7303 18.8438 33.8252 18.1993 30.8054C17.964 30.7021 17.4935 30.4822 17.243 30.3789C16.4646 32.5496 15.6862 34.7356 14.7759 36.8623C15.363 37.8147 15.9961 38.7384 16.6712 39.6335Z" fill="white"/>
<path d="M41.4056 39.6622C41.9928 38.6065 42.9031 37.5795 42.9777 36.3478C42.36 34.2211 41.5223 32.1384 40.5833 30.115C40.1281 30.9661 39.3631 31.8611 39.7016 32.9015C40.1128 35.1889 40.8472 37.4035 41.4056 39.6622Z" fill="white"/>
<mask id="mask4_75_3241" style="mask-type:luminance" maskUnits="userSpaceOnUse" x="29" y="58" width="10" height="16">
<path d="M29.6362 58.3971H38.449V73.72H29.6362V58.3971Z" fill="white"/>
</mask>
<g mask="url(#mask4_75_3241)">
<path d="M32.8131 58.8312C31.3596 63.3906 30.4779 68.1145 29.8315 72.8364C29.8028 73.0258 29.7435 73.4083 29.7148 73.6129C32.6085 73.5995 35.5155 73.6129 38.4091 73.5995C38.3211 73.217 38.2331 72.8364 38.1298 72.4692C36.9269 67.732 34.7811 63.3026 32.8131 58.8312Z" fill="white"/>
</g>
<path d="M24.7632 16.5057C24.7785 13.0001 27.9227 10.7873 29.9346 8.30872C31.9906 10.7567 34.8995 13.0594 35.0754 16.5057C35.3833 20.172 31.9753 22.4593 29.9193 25.0125C27.8481 22.4746 24.4993 20.1873 24.7632 16.5057Z" fill="white"/>
<path d="M94.942 9.09276C96.0565 8.73065 95.5889 6.96932 94.4358 7.32791C92.7448 7.90448 91.0537 8.51619 89.3979 9.2369C89.5069 8.98377 89.5772 8.69549 89.6862 8.44237C90.0448 7.32791 88.2834 6.86034 87.9213 7.97479C87.6682 8.73065 87.3834 9.52518 87.0951 10.281C86.3393 10.6396 85.5834 11.0369 84.8276 11.4306C83.7834 11.9721 84.7186 13.5541 85.7276 12.981C85.8682 12.9072 86.0123 12.8721 86.1213 12.7982C85.151 15.2486 84.1772 17.6955 83.4565 20.2514C82.8448 22.5189 81.551 26.5514 83.4951 28.5658C86.4834 31.6631 92.6358 26.5865 94.7979 24.5721C95.6241 23.7775 94.4006 22.6279 93.5358 23.3486C91.9889 24.6424 84.6096 30.4748 84.3951 25.7217C84.3213 24.3928 84.5006 23.0603 84.7537 21.7279C84.8627 21.7279 84.933 21.6928 85.042 21.6541C87.3448 20.4658 89.7565 19.5307 92.0627 18.3424C93.142 17.8045 92.2069 16.2189 91.1627 16.7603C89.2537 17.7306 87.3096 18.5603 85.3655 19.4603C86.1951 16.7955 87.4186 14.1693 88.4627 11.6486C90.551 10.6748 92.7448 9.81346 94.942 9.09276Z" fill="white"/>
<path d="M106.029 20.61C103.687 21.0424 101.061 21.5838 98.7547 22.628C98.7195 22.519 98.7195 22.41 98.7195 22.3045C98.5754 21.619 98.4313 20.8983 98.361 20.2162C98.2871 19.6748 98.2168 19.0983 98.2871 18.5604C98.361 18.1983 98.4699 17.8045 98.5754 17.4424C99.6934 16.2541 100.555 16.3631 101.205 17.7658C100.773 18.81 102.464 19.2811 102.896 18.2369C104.049 15.428 100.411 14.1694 98.2871 15.319C95.661 16.7252 96.4871 20.2162 96.9195 22.5928C96.9547 22.9162 97.0285 23.2045 97.0637 23.4928C96.0934 24.1045 95.2285 24.8217 94.5078 25.7217C93.1403 27.4514 91.6285 32.2397 95.1195 32.528C98.1078 32.7776 99.043 29.4307 99.1168 27.128C99.152 26.228 99.1168 25.2928 99.0078 24.3928C101.529 23.2397 104.661 22.6983 106.531 22.3748C107.649 22.1604 107.178 20.3955 106.029 20.61ZM97.3168 27.128C97.2817 27.919 97.2078 28.819 96.8492 29.5397C96.0934 30.9424 94.761 30.6893 94.8699 29.0721C94.9403 27.4866 95.9141 26.2631 97.243 25.3631C97.3168 25.9397 97.3168 26.5162 97.3168 27.128Z" fill="white"/>
<path d="M120.321 20.1073C119.276 18.9928 117.835 18.4163 116.288 18.2721C116.323 17.91 116.288 17.5514 116.214 17.228C115.821 15.4631 114.379 14.2045 112.544 14.1694C111.5 14.1694 110.491 14.5631 109.626 15.1397C109.7 14.8866 109.77 14.6721 109.844 14.419C110.203 13.3397 108.512 12.8721 108.153 13.9514C105.812 20.6838 103.797 27.5604 101.779 34.3983C101.421 35.5128 103.147 35.9838 103.509 34.8659C105.2 29.6452 106.712 24.3542 108.367 19.0983C108.403 19.0631 108.403 19.028 108.441 18.9542C109.232 17.6604 110.814 15.8604 112.544 15.9694C114.021 16.0749 114.488 17.1542 114.45 18.3073C113.047 18.4514 111.679 18.9542 110.6 19.6749C109.338 20.5749 107.467 22.0163 107.397 23.7424C107.397 25.11 108.512 26.119 109.844 25.9397C112.291 25.6163 114.956 22.8424 115.926 20.1073C117.15 20.2514 118.338 20.6838 119.023 21.4045C119.814 22.2659 121.112 20.9721 120.321 20.1073ZM109.267 23.637C108.979 22.6631 112.365 20.5749 113.191 20.2866C113.444 20.2163 113.694 20.1424 113.947 20.1073C113.912 20.2163 113.876 20.2866 113.803 20.3956C113.514 20.8983 109.735 25.1838 109.267 23.637Z" fill="white"/>
<path d="M133.062 19.8927C132.376 21.081 130.865 23.5279 129.353 23.1658C127.121 22.663 128.203 19.172 129.174 16.8306C129.497 16.1486 129.785 15.572 129.965 15.1396C130.471 14.0955 128.921 13.1603 128.418 14.2396C128.274 14.4541 128.13 14.7423 127.985 15.0693C123.45 12.5486 115.962 19.8927 120.103 23.8513C122.336 25.9396 124.494 24.3927 126.259 21.9775C126.365 23.2748 126.941 24.4279 128.239 25.0748C130.865 26.4072 133.565 22.6982 134.644 20.7927C135.221 19.7837 133.639 18.8486 133.062 19.8927ZM123.306 22.4486C120.785 24.1748 120.536 20.5748 121.58 18.9927C122.765 17.1927 125.215 15.463 127.303 16.6513C126.294 18.8837 125.106 21.2216 123.306 22.4486Z" fill="white"/>
<path d="M144.04 18.4865C142.817 19.7838 141.484 21.0424 139.864 21.9072C138.137 22.8072 134.752 23.2748 135.149 20.3217C135.293 19.0631 135.94 17.8748 136.805 16.9397C137.487 16.2541 139.649 14.0955 140.081 15.7865C140.261 16.5811 141.593 16.4369 141.484 15.6072C141.196 13.2694 139.326 12.9811 137.487 14.0955C135.402 15.3928 133.817 17.4072 133.384 19.8541C132.917 22.3748 134.358 24.319 136.949 24.4631C136.661 24.8604 136.408 25.2541 136.193 25.6514C135.94 26.0838 136.337 26.5162 136.77 26.4072C137.417 26.2983 138.243 26.3334 137.849 27.128C137.487 27.8838 136.626 28.0983 135.905 27.919C135.219 27.7748 134.931 28.7838 135.617 28.9631C136.984 29.2865 138.57 28.6397 138.964 27.1983C139.252 26.0487 138.496 25.4721 137.596 25.3631C137.775 25.0397 138.028 24.7162 138.243 24.428C141.017 23.9604 143.499 21.728 145.337 19.7838C146.128 18.919 144.831 17.6252 144.04 18.4865Z" fill="white"/>
<path d="M157.251 19.5658C156.53 20.3603 155.307 20.4306 154.083 20.1424C154.695 18.3072 154.298 16.5072 152.786 15.1396C152.536 14.8865 152.248 14.7072 151.995 14.5982C147.818 11.8631 143.427 18.2369 144.183 22.1603C144.616 24.572 146.669 26.1541 149.151 25.3982C150.771 24.9306 152.248 23.4927 153.218 21.9775C155.127 22.5189 157.251 22.2658 158.548 20.8631C159.339 19.9982 158.042 18.7045 157.251 19.5658ZM150.771 16.6513C151.995 15.4279 152.642 18.4513 152.571 18.9541C152.536 19.1369 152.498 19.3162 152.427 19.4955C150.951 18.7045 149.942 17.5162 150.771 16.6513ZM151.418 21.3658C150.88 22.0865 150.086 23.0217 149.26 23.3838C146.774 24.5334 145.625 22.0162 145.983 20.072C146.271 18.5955 147.569 16.4369 149.151 15.8252V15.8603C148.286 18.1631 149.548 20.1424 151.492 21.2603C151.457 21.2955 151.457 21.3306 151.418 21.3658Z" fill="white"/>
<path d="M95.0861 38.3498C90.2627 45.4795 87.3834 53.5057 84.251 61.4264C84.2123 55.812 84.142 50.0885 81.5158 44.9768C80.9744 43.9678 79.4275 44.8678 79.9654 45.9119C83.0627 52.0291 82.233 59.2291 82.4861 65.8913C82.4861 66.7174 83.7834 67.2588 84.1771 66.3588C88.0654 57.1795 91.0537 47.603 96.6682 39.2885C97.3185 38.2795 95.733 37.3795 95.0861 38.3498Z" fill="white"/>
<path d="M101.851 54.4408C100.807 55.8822 99.6569 57.4291 98.1452 58.4732C97.1714 59.1236 96.3804 59.2678 96.4893 57.8615C96.7038 55.5939 97.9659 53.4002 98.7921 51.3119C99.2245 50.1939 97.4596 49.7264 97.0272 50.8057C96.3804 52.4615 95.5893 54.0822 95.0831 55.8119C94.7245 57.1057 94.2569 58.8354 95.1921 59.985C97.7479 63.2264 102.248 57.0705 103.436 55.3408C104.122 54.3705 102.571 53.5057 101.851 54.4408ZM98.9714 48.0354C98.9714 48.0354 99.01 48.0354 99.0452 48.0354C99.5128 47.9615 99.9804 47.6381 99.9452 47.1002C99.9452 46.6326 99.5479 46.1264 99.0452 46.1615C99.01 46.1615 98.9714 46.1615 98.9714 46.2002C98.4686 46.2354 98.0011 46.5588 98.0362 47.1002C98.0714 47.5678 98.4335 48.0705 98.9714 48.0354Z" fill="white"/>
<path d="M102.572 59.1588C102.825 60.2381 103.328 61.7146 104.769 61.2084C106.028 60.7408 107.142 58.6912 107.863 57.6822C109.375 55.5236 110.637 53.1822 112.328 51.1677C113.084 50.2677 111.786 48.9705 111.031 49.8705C108.837 52.5353 107.181 55.6291 105.054 58.3677C104.875 58.5822 104.731 58.8353 104.516 59.0146C104.228 59.3381 104.337 59.1939 104.442 59.3029C104.013 58.9408 104.049 56.8174 103.975 56.3146C103.795 54.4795 103.76 52.6443 103.398 50.8056C103.149 49.6912 101.528 50.1939 101.707 51.2732C102.069 53.8677 101.96 56.5677 102.572 59.1588Z" fill="white"/>
<path d="M122.226 54.3354C121.002 55.8471 119.705 57.5381 117.944 58.5119C116.72 59.194 115.244 59.3029 114.309 58.0057C113.876 57.4291 113.802 56.7822 113.911 56.0967C116.432 55.9174 120.426 54.2264 119.744 50.985C119.093 47.8561 115.244 49.8705 114.055 51.4174C111.967 54.1174 110.744 59.0498 114.846 60.5967C118.376 61.9678 121.614 58.0408 123.488 55.594C124.17 54.7291 122.982 53.4354 122.226 54.3354ZM118.014 51.3471C118.337 51.8147 117.546 52.785 117.258 53.0733C116.502 53.8678 115.493 54.2264 114.449 54.4057C114.449 54.3354 114.488 54.2615 114.523 54.1912C114.811 53.5408 117.114 49.8705 118.014 51.3471Z" fill="white"/>
<path d="M128.562 49.656C127.194 49.438 126.041 49.9056 125.071 50.8056C125.106 50.338 125.106 49.9056 124.997 49.5119C124.709 48.3939 123.127 48.8615 123.341 49.9443C123.594 51.3119 122.659 53.5056 122.262 54.8029C122.047 55.6677 121.794 56.5291 121.506 57.3939C121.291 58.0056 121.109 58.6173 120.968 59.1236C120.824 59.4822 120.715 59.8408 120.606 60.1677C120.212 61.2822 121.973 61.7498 122.371 60.6353C122.768 59.4119 123.162 58.1849 123.559 56.9263C124.315 54.838 125.32 52.7498 127.05 51.7795C129.029 50.7002 128.959 52.6056 128.741 54.0119C128.382 56.2408 127.482 58.4029 126.582 60.4525C126.15 61.4966 127.697 62.4353 128.164 61.3525C129.029 59.3029 133.315 50.4119 128.562 49.656Z" fill="white"/>
<path d="M136.515 50.3381C134.43 51.6002 132.845 53.6498 132.412 56.0615C131.91 58.6912 133.492 60.6705 136.23 60.7056C139.433 60.7408 142.312 58.1849 144.366 55.9912C145.157 55.1264 143.859 53.8291 143.068 54.6939C141.845 56.0264 140.512 57.2498 138.892 58.1146C137.166 59.0146 133.78 59.4822 134.177 56.5291C134.321 55.3056 134.968 54.0822 135.833 53.1822C136.515 52.4615 138.677 50.3029 139.11 52.0291C139.289 52.7849 140.621 52.6443 140.512 51.8146C140.224 49.4732 138.354 49.1885 136.515 50.3381Z" fill="white"/>
<path d="M150.014 54.4408C148.97 55.8822 147.82 57.4291 146.309 58.4732C145.335 59.1236 144.544 59.2678 144.653 57.8615C144.867 55.5939 146.129 53.4002 146.956 51.3119C147.388 50.1939 145.623 49.7264 145.191 50.8057C144.544 52.4615 143.753 54.0822 143.247 55.8119C142.888 57.1057 142.42 58.8354 143.356 59.985C145.912 63.2264 150.412 57.0705 151.6 55.3408C152.285 54.3705 150.735 53.5057 150.014 54.4408ZM147.135 48.0354C147.135 48.0354 147.174 48.0354 147.209 48.0354C147.676 47.9615 148.144 47.6381 148.109 47.1002C148.109 46.6326 147.712 46.1264 147.209 46.1615C147.174 46.1615 147.135 46.1615 147.135 46.2002C146.632 46.2354 146.165 46.5588 146.2 47.1002C146.235 47.5678 146.597 48.0705 147.135 48.0354Z" fill="white"/>
<path d="M163.659 55.6678C162.973 56.856 161.461 59.3029 159.95 58.9408C157.717 58.4381 158.8 54.9471 159.77 52.6056C160.094 51.9236 160.382 51.3471 160.561 50.9146C161.068 49.8705 159.517 48.9353 159.015 50.0146C158.87 50.2291 158.726 50.5174 158.582 50.8443C154.047 48.3236 146.559 55.6678 150.7 59.6264C152.932 61.7146 155.091 60.1678 156.856 57.7525C156.961 59.0498 157.538 60.2029 158.835 60.8498C161.461 62.1822 164.161 58.4732 165.241 56.5678C165.817 55.5588 164.235 54.6236 163.659 55.6678ZM153.903 58.2236C151.382 59.9498 151.132 56.3498 152.177 54.7678C153.361 52.9678 155.812 51.2381 157.9 52.4264C156.891 54.6588 155.703 56.9967 153.903 58.2236Z" fill="white"/>
<path d="M172.549 50.2678C170.172 49.5822 168.302 50.3733 166.755 51.8147C166.899 51.2381 167.078 50.7002 167.258 50.1236C167.581 49.0443 165.89 48.5733 165.567 49.6561C164.667 52.5354 163.837 55.4147 162.793 58.2588C162.505 58.9057 162.255 59.5174 162.037 60.094C161.643 61.2084 163.369 61.6408 163.802 60.5615C164.09 59.9147 164.343 59.2291 164.593 58.5822C165.96 55.2002 168.302 50.9498 172.046 52.0291C173.16 52.3561 173.667 50.5912 172.549 50.2678Z" fill="white"/>
</svg>
