<svg width="21" height="20" viewBox="0 0 21 20" fill="none" xmlns="http://www.w3.org/2000/svg">
<path d="M8.15506 9.37733C8.07694 9.45455 8.01493 9.54641 7.97262 9.64763C7.9303 9.74884 7.90852 9.8574 7.90852 9.96705C7.90852 10.0767 7.9303 10.1853 7.97262 10.2865C8.01493 10.3877 8.07694 10.4796 8.15506 10.5568C8.31122 10.7115 8.52247 10.7983 8.74266 10.7983C8.96286 10.7983 9.17411 10.7115 9.33027 10.5568C9.40839 10.4796 9.4704 10.3877 9.51271 10.2865C9.55503 10.1853 9.57681 10.0767 9.57681 9.96705C9.57681 9.8574 9.55503 9.74884 9.51271 9.64763C9.4704 9.54641 9.40839 9.45455 9.33027 9.37733C9.17411 9.22264 8.96286 9.1358 8.74266 9.1358C8.52247 9.1358 8.31122 9.22264 8.15506 9.37733ZM10.2138 11.4372C10.0585 11.5928 9.97139 11.8033 9.97139 12.0228C9.97139 12.2422 10.0585 12.4527 10.2138 12.6083C10.2912 12.6862 10.3834 12.748 10.485 12.7901C10.5866 12.8323 10.6955 12.854 10.8055 12.854C10.9156 12.854 11.0245 12.8323 11.1261 12.7901C11.2276 12.748 11.3198 12.6862 11.3973 12.6083C11.5525 12.4527 11.6397 12.2422 11.6397 12.0228C11.6397 11.8033 11.5525 11.5928 11.3973 11.4372C11.3198 11.3593 11.2276 11.2976 11.1261 11.2554C11.0245 11.2132 10.9156 11.1915 10.8055 11.1915C10.6955 11.1915 10.5866 11.2132 10.485 11.2554C10.3834 11.2976 10.2912 11.3593 10.2138 11.4372ZM17.7151 3.13131C16.8084 2.22034 15.5842 1.69294 14.2971 1.65891C13.01 1.62487 11.7594 2.08682 10.8055 2.94858C9.85607 2.09688 8.61553 1.63956 7.33843 1.67045C6.06133 1.70134 4.84452 2.2181 3.93764 3.1147C3.03666 4.01991 2.51809 5.23481 2.48863 6.50944C2.45917 7.78407 2.92107 9.02147 3.77927 9.96705C3.13764 10.6819 2.71662 11.566 2.56673 12.5134C2.41685 13.4608 2.54447 14.4311 2.93429 15.308C3.3241 16.1849 3.95955 16.9311 4.76437 17.457C5.56919 17.9829 6.50921 18.2662 7.4716 18.2729C8.70534 18.2742 9.89482 17.8149 10.8055 16.9855C11.7555 17.8397 12.9978 18.2985 14.2769 18.2676C15.5559 18.2367 16.7745 17.7184 17.6818 16.8194C18.5816 15.9131 19.0986 14.6976 19.1266 13.423C19.1545 12.1484 18.6911 10.9116 17.8318 9.96705C18.6911 9.02252 19.1545 7.78571 19.1266 6.51109C19.0986 5.23647 18.5816 4.02099 17.6818 3.1147L17.7151 3.13131ZM16.4982 4.29413C17.0779 4.88833 17.4137 5.67693 17.4399 6.5052C17.4662 7.33346 17.1808 8.14159 16.6399 8.771L12.0057 4.15293C12.6429 3.62612 13.4513 3.34968 14.2788 3.37569C15.1063 3.40169 15.8957 3.72836 16.4982 4.29413ZM5.11285 15.64C4.53322 15.0458 4.19734 14.2572 4.17112 13.4289C4.14491 12.6006 4.43025 11.7925 4.97115 11.1631L9.63866 15.8144C8.99447 16.3443 8.17708 16.6194 7.34237 16.5873C6.50767 16.5551 5.71404 16.2179 5.11285 15.64ZM16.4982 15.64C15.8654 16.2431 15.0235 16.5797 14.1478 16.5797C13.2721 16.5797 12.4302 16.2431 11.7974 15.64L5.12952 8.99526C4.50857 8.37278 4.16003 7.53072 4.16003 6.653C4.16003 5.77529 4.50857 4.93323 5.12952 4.31075C5.75417 3.69195 6.59916 3.34463 7.47994 3.34463C8.36071 3.34463 9.20571 3.69195 9.83036 4.31075L16.4982 10.9555C17.1192 11.5779 17.4677 12.42 17.4677 13.2977C17.4677 14.1754 17.1192 15.0175 16.4982 15.64ZM12.2808 9.37733C12.2027 9.45455 12.1407 9.54641 12.0984 9.64763C12.056 9.74884 12.0343 9.8574 12.0343 9.96705C12.0343 10.0767 12.056 10.1853 12.0984 10.2865C12.1407 10.3877 12.2027 10.4796 12.2808 10.5568C12.437 10.7115 12.6482 10.7983 12.8684 10.7983C13.0886 10.7983 13.2998 10.7115 13.456 10.5568C13.5341 10.4796 13.5961 10.3877 13.6385 10.2865C13.6808 10.1853 13.7026 10.0767 13.7026 9.96705C13.7026 9.8574 13.6808 9.74884 13.6385 9.64763C13.5961 9.54641 13.5341 9.45455 13.456 9.37733C13.2998 9.22264 13.0886 9.1358 12.8684 9.1358C12.6482 9.1358 12.437 9.22264 12.2808 9.37733ZM10.2138 7.32578C10.0585 7.4814 9.97139 7.69192 9.97139 7.91135C9.97139 8.13077 10.0585 8.34129 10.2138 8.49691C10.2912 8.57476 10.3834 8.63655 10.485 8.67872C10.5866 8.72089 10.6955 8.7426 10.8055 8.7426C10.9156 8.7426 11.0245 8.72089 11.1261 8.67872C11.2276 8.63655 11.3198 8.57476 11.3973 8.49691C11.5525 8.34129 11.6397 8.13077 11.6397 7.91135C11.6397 7.69192 11.5525 7.4814 11.3973 7.32578C11.3198 7.24793 11.2276 7.18614 11.1261 7.14397C11.0245 7.1018 10.9156 7.08009 10.8055 7.08009C10.6955 7.08009 10.5866 7.1018 10.485 7.14397C10.3834 7.18614 10.2912 7.24793 10.2138 7.32578Z" fill="#006650"/>
</svg>
