<svg width="24" height="23" viewBox="0 0 25 24" fill="none" xmlns="http://www.w3.org/2000/svg">
<path d="M17.0867 2.11891C17.574 1.63194 18.2348 1.3584 18.9237 1.3584C19.6126 1.3584 20.2733 1.63194 20.7606 2.11891L22.3733 3.73162C22.8603 4.21892 23.1338 4.87965 23.1338 5.56856C23.1338 6.25747 22.8603 6.9182 22.3733 7.40551L9.58748 20.1914C9.27563 20.5032 8.88953 20.7319 8.46482 20.8522L3.63709 22.2332C3.446 22.2878 3.24378 22.2903 3.05141 22.2404C2.85904 22.1905 2.68352 22.0901 2.54307 21.9495C2.40262 21.8089 2.30235 21.6332 2.25266 21.4408C2.20297 21.2484 2.20567 21.0462 2.26049 20.8552L3.64006 16.0289C3.76034 15.6042 3.98903 15.2166 4.30088 14.9033L17.0867 2.11742V2.11891ZM17.3481 9.28106L15.2112 7.14266L5.87647 16.4789C5.83181 16.5235 5.79913 16.5786 5.78143 16.6392L4.9528 19.5394L7.853 18.7108C7.9136 18.6931 7.96875 18.6604 8.01338 18.6158L17.3481 9.28106ZM19.1865 3.69301C19.152 3.65843 19.1111 3.631 19.066 3.61229C19.0209 3.59357 18.9725 3.58394 18.9237 3.58394C18.8748 3.58394 18.8265 3.59357 18.7814 3.61229C18.7363 3.631 18.6953 3.65843 18.6608 3.69301L16.7868 5.56856L18.9237 7.70696L20.7992 5.83141C20.8338 5.79692 20.8612 5.75595 20.8799 5.71085C20.8987 5.66575 20.9083 5.61739 20.9083 5.56856C20.9083 5.51973 20.8987 5.47138 20.8799 5.42627C20.8612 5.38117 20.8338 5.3402 20.7992 5.30572L19.1865 3.69301Z" fill="#006650" fill-opacity="0.9"/>
</svg>
