<svg width="43" height="42" viewBox="0 0 43 42" fill="none" xmlns="http://www.w3.org/2000/svg">
<path d="M29.0469 14.1125C28.111 13.1672 26.9962 12.4176 25.7676 11.9076C24.539 11.3976 23.2211 11.1373 21.8909 11.1419C16.3171 11.1419 11.7744 15.6846 11.7744 21.2584C11.7744 23.0448 12.244 24.7802 13.1219 26.3115L11.6927 31.5586L17.0521 30.1498C18.5323 30.9563 20.1963 31.385 21.8909 31.385C27.4646 31.385 32.0073 26.8423 32.0073 21.2686C32.0073 18.5634 30.9559 16.0215 29.0469 14.1125ZM21.8909 29.67C20.38 29.67 18.8998 29.2617 17.6034 28.4961L17.2971 28.3123L14.1121 29.1494L14.9594 26.0461L14.7552 25.7296C13.9159 24.3892 13.4702 22.8399 13.469 21.2584C13.469 16.6238 17.2461 12.8467 21.8807 12.8467C24.1265 12.8467 26.2396 13.7246 27.8219 15.3171C28.6054 16.097 29.2263 17.0246 29.6486 18.0462C30.0709 19.0678 30.2862 20.1631 30.2821 21.2686C30.3025 25.9032 26.5255 29.67 21.8909 29.67ZM26.505 23.3817C26.2498 23.2592 25.0044 22.6467 24.7798 22.5548C24.545 22.4732 24.3817 22.4323 24.2082 22.6773C24.0346 22.9325 23.5548 23.5042 23.4119 23.6675C23.269 23.8411 23.1159 23.8615 22.8607 23.7288C22.6055 23.6063 21.7888 23.3307 20.8292 22.4732C20.0738 21.7994 19.5736 20.9725 19.4205 20.7173C19.2775 20.4621 19.4 20.3294 19.5327 20.1967C19.645 20.0844 19.788 19.9007 19.9105 19.7577C20.033 19.6148 20.084 19.5025 20.1657 19.3392C20.2473 19.1657 20.2065 19.0227 20.1452 18.9002C20.084 18.7777 19.5736 17.5323 19.3694 17.0219C19.1652 16.5319 18.9509 16.5932 18.7977 16.5829H18.3077C18.1342 16.5829 17.8688 16.6442 17.634 16.8994C17.4094 17.1546 16.7561 17.7671 16.7561 19.0125C16.7561 20.2579 17.6646 21.4625 17.7871 21.6259C17.9096 21.7994 19.5736 24.3515 22.1052 25.4438C22.7075 25.7092 23.1771 25.8623 23.5446 25.9746C24.1469 26.1686 24.6982 26.1379 25.1371 26.0767C25.6271 26.0052 26.6377 25.4642 26.8419 24.8721C27.0563 24.28 27.0563 23.7798 26.9848 23.6675C26.9134 23.5552 26.7602 23.5042 26.505 23.3817Z" fill="#0EAC01"/>
</svg>
