<svg width="18" height="18" viewBox="0 0 18 18" fill="none" xmlns="http://www.w3.org/2000/svg">
<path d="M17.5034 15.4568L14.0478 11.9758C13.8918 11.8186 13.6804 11.7314 13.4586 11.7314H12.8936C13.8502 10.4989 14.4186 8.94865 14.4186 7.26227C14.4186 3.25056 11.1918 0 7.20932 0C3.22687 0 0 3.25056 0 7.26227C0 11.274 3.22687 14.5245 7.20932 14.5245C8.88341 14.5245 10.4223 13.9519 11.6458 12.9883V13.5574C11.6458 13.7809 11.7325 13.9938 11.8885 14.1509L15.3441 17.6319C15.6699 17.9601 16.1967 17.9601 16.5191 17.6319L17.4999 16.6439C17.8257 16.3157 17.8257 15.785 17.5034 15.4568ZM7.20932 11.7314C4.75885 11.7314 2.77282 9.73423 2.77282 7.26227C2.77282 4.7938 4.75538 2.79318 7.20932 2.79318C9.6598 2.79318 11.6458 4.7903 11.6458 7.26227C11.6458 9.73074 9.66327 11.7314 7.20932 11.7314Z" fill="#616161"/>
</svg>
